<?xml version="1.0" encoding="UTF-8" standalone="no"?>
<!-- Created with Inkscape (http://www.inkscape.org/) -->

<svg
   xmlns:dc="http://purl.org/dc/elements/1.1/"
   xmlns:cc="http://creativecommons.org/ns#"
   xmlns:rdf="http://www.w3.org/1999/02/22-rdf-syntax-ns#"
   xmlns:svg="http://www.w3.org/2000/svg"
   xmlns="http://www.w3.org/2000/svg"
   xmlns:sodipodi="http://sodipodi.sourceforge.net/DTD/sodipodi-0.dtd"
   xmlns:inkscape="http://www.inkscape.org/namespaces/inkscape"
   id="svg3431"
   version="1.1"
   inkscape:version="0.48.4 r9939"
   width="202.5"
   height="90"
   xml:space="preserve"
   sodipodi:docname="Brooklynidentity_manual.pdf"><title
     id="title4663">CUNY Brooklyn College Logo</title><metadata
     id="metadata3437"><rdf:RDF><cc:Work
         rdf:about=""><dc:format>image/svg+xml</dc:format><dc:type
           rdf:resource="http://purl.org/dc/dcmitype/StillImage" /><dc:title>CUNY Brooklyn College Logo</dc:title></cc:Work></rdf:RDF></metadata><defs
     id="defs3435"><clipPath
       clipPathUnits="userSpaceOnUse"
       id="clipPath3547"><path
         d="M 0,0 792,0 792,612 0,612 0,0 z"
         id="path3549"
         inkscape:connector-curvature="0" /></clipPath><clipPath
       clipPathUnits="userSpaceOnUse"
       id="clipPath3579"><path
         d="M 0,0 792,0 792,612 0,612 0,0 z"
         id="path3581"
         inkscape:connector-curvature="0" /></clipPath><clipPath
       clipPathUnits="userSpaceOnUse"
       id="clipPath3607"><path
         d="M 0,0 792,0 792,612 0,612 0,0 z"
         id="path3609"
         inkscape:connector-curvature="0" /></clipPath><clipPath
       clipPathUnits="userSpaceOnUse"
       id="clipPath3755"><path
         d="M 0,0 792,0 792,612 0,612 0,0 z"
         id="path3757"
         inkscape:connector-curvature="0" /></clipPath><clipPath
       clipPathUnits="userSpaceOnUse"
       id="clipPath3783"><path
         d="M 0,0 792,0 792,612 0,612 0,0 z"
         id="path3785"
         inkscape:connector-curvature="0" /></clipPath><clipPath
       clipPathUnits="userSpaceOnUse"
       id="clipPath3931"><path
         d="M 0,0 792,0 792,612 0,612 0,0 z"
         id="path3933"
         inkscape:connector-curvature="0" /></clipPath><clipPath
       clipPathUnits="userSpaceOnUse"
       id="clipPath3959"><path
         d="M 0,0 792,0 792,612 0,612 0,0 z"
         id="path3961"
         inkscape:connector-curvature="0" /></clipPath><clipPath
       clipPathUnits="userSpaceOnUse"
       id="clipPath4107"><path
         d="M 0,0 792,0 792,612 0,612 0,0 z"
         id="path4109"
         inkscape:connector-curvature="0" /></clipPath><clipPath
       clipPathUnits="userSpaceOnUse"
       id="clipPath4135"><path
         d="M 0,0 792,0 792,612 0,612 0,0 z"
         id="path4137"
         inkscape:connector-curvature="0" /></clipPath><clipPath
       clipPathUnits="userSpaceOnUse"
       id="clipPath4279"><path
         d="M 0,0 792,0 792,612 0,612 0,0 z"
         id="path4281"
         inkscape:connector-curvature="0" /></clipPath><clipPath
       clipPathUnits="userSpaceOnUse"
       id="clipPath4311"><path
         d="M 0,0 792,0 792,612 0,612 0,0 z"
         id="path4313"
         inkscape:connector-curvature="0" /></clipPath><clipPath
       clipPathUnits="userSpaceOnUse"
       id="clipPath4339"><path
         d="M 0,0 792,0 792,612 0,612 0,0 z"
         id="path4341"
         inkscape:connector-curvature="0" /></clipPath><clipPath
       clipPathUnits="userSpaceOnUse"
       id="clipPath4483"><path
         d="M 0,0 792,0 792,612 0,612 0,0 z"
         id="path4485"
         inkscape:connector-curvature="0" /></clipPath><clipPath
       clipPathUnits="userSpaceOnUse"
       id="clipPath4515"><path
         d="M 0,0 792,0 792,612 0,612 0,0 z"
         id="path4517"
         inkscape:connector-curvature="0" /></clipPath><clipPath
       clipPathUnits="userSpaceOnUse"
       id="clipPath4543"><path
         d="M 0,0 792,0 792,612 0,612 0,0 z"
         id="path4545"
         inkscape:connector-curvature="0" /></clipPath></defs><sodipodi:namedview
     pagecolor="#ffffff"
     bordercolor="#666666"
     borderopacity="1"
     objecttolerance="10"
     gridtolerance="10"
     guidetolerance="10"
     inkscape:pageopacity="0"
     inkscape:pageshadow="2"
     inkscape:window-width="1920"
     inkscape:window-height="1005"
     id="namedview3433"
     showgrid="false"
     fit-margin-top="0"
     fit-margin-left="0"
     fit-margin-right="0"
     fit-margin-bottom="0"
     inkscape:zoom="1.5326361"
     inkscape:cx="416.25"
     inkscape:cy="152.38517"
     inkscape:window-x="-9"
     inkscape:window-y="-9"
     inkscape:window-maximized="1"
     inkscape:current-layer="g3439" /><g
     id="g3439"
     inkscape:groupmode="layer"
     inkscape:label="Brooklynidentity_manual"
     transform="matrix(1.25,0,0,-1.25,-78.75,180)"><path
       d="m 63,72 162,0 0,72 -162,0 0,-72 z"
       style="fill:#850040;fill-opacity:1;fill-rule:nonzero;stroke:none"
       id="path3461"
       inkscape:connector-curvature="0" /><g
       id="g3779"><g
         id="g3781"
         clip-path="url(#clipPath3783)"><g
           id="g3903"
           transform="translate(80.1677,120.7552)"><path
             d="m 0,0 c 0,1.65 -0.315,2.003 -1.767,2.003 l -1.375,0 0,-8.405 1.61,0 C -0.157,-6.402 0,-6.008 0,-4.399 L 0,0 z M -1.767,5.302 C -0.433,5.302 0,5.576 0,7.461 l 0,4.634 c 0,1.374 -0.315,1.963 -1.61,1.963 -0.55,0 -0.982,0 -1.532,-0.117 l 0,-8.639 1.375,0 z m -6.401,11.505 c 2.002,0.275 4.595,0.511 6.636,0.511 2.946,0 6.597,-0.511 6.597,-4.36 l 0,-5.419 C 5.065,5.576 4.358,4.634 3.219,4.241 l 0,-0.039 C 4.436,4.044 5.065,2.67 5.065,0.982 l 0,-6.99 c 0,-3.653 -3.965,-3.653 -6.479,-3.653 l -6.754,0 0,26.468 z"
             style="fill:#ffffff;fill-opacity:1;fill-rule:nonzero;stroke:none"
             id="path3905"
             inkscape:connector-curvature="0" /></g><g
           id="g3907"
           transform="translate(86.9547,130.8865)"><path
             d="m 0,0 4.398,0.433 0.354,-1.532 c 1.413,0.825 2.96,1.363 3.876,1.363 0,0 -0.334,-3.93 -0.362,-3.93 -1.155,0.011 -2.296,-0.064 -3.2,-0.182 l 0,-15.944 -5.066,0 L 0,0 z"
             style="fill:#ffffff;fill-opacity:1;fill-rule:nonzero;stroke:none"
             id="path3909"
             inkscape:connector-curvature="0" /></g><g
           id="g3911"
           transform="translate(103.8683,126.2136)"><path
             d="M 0,0 C 0,1.414 -0.51,1.846 -1.178,1.846 -1.884,1.846 -2.395,1.414 -2.395,0 l 0,-10.446 c 0,-1.414 0.511,-1.885 1.217,-1.885 0.668,0 1.178,0.471 1.178,1.885 L 0,0 z m -7.46,0.745 c 0,3.889 3.298,4.361 6.282,4.361 2.946,0 6.244,-0.472 6.244,-4.361 l 0,-12.015 c 0,-3.849 -3.298,-4.282 -6.244,-4.282 -2.984,0 -6.282,0.433 -6.282,4.282 l 0,12.015 z"
             style="fill:#ffffff;fill-opacity:1;fill-rule:nonzero;stroke:none"
             id="path3913"
             inkscape:connector-curvature="0" /></g><g
           id="g3915"
           transform="translate(118.2246,126.2136)"><path
             d="M 0,0 C 0,1.414 -0.51,1.846 -1.179,1.846 -1.885,1.846 -2.395,1.414 -2.395,0 l 0,-10.446 c 0,-1.414 0.51,-1.885 1.216,-1.885 0.669,0 1.179,0.471 1.179,1.885 L 0,0 z m -7.461,0.745 c 0,3.889 3.298,4.361 6.282,4.361 2.946,0 6.245,-0.472 6.245,-4.361 l 0,-12.015 c 0,-3.849 -3.299,-4.282 -6.245,-4.282 -2.984,0 -6.282,0.433 -6.282,4.282 l 0,12.015 z"
             style="fill:#ffffff;fill-opacity:1;fill-rule:nonzero;stroke:none"
             id="path3917"
             inkscape:connector-curvature="0" /></g></g></g><g
       id="g3919"
       transform="translate(130.3011,121.9333)"><path
         d="m 0,0 2.631,8.915 5.223,0 -2.985,-9.033 3.418,-10.721 -5.538,0 L 0,0 z m -5.145,14.659 5.066,1.481 0,-26.979 -5.066,0 0,25.498 z"
         style="fill:#ffffff;fill-opacity:1;fill-rule:nonzero;stroke:none"
         id="path3921"
         inkscape:connector-curvature="0" /></g><g
       id="g3923"
       transform="translate(139.6975,136.5609)"><path
         d="m 0,0 5.067,1.513 0,-26.979 -5.067,0 L 0,0 z"
         style="fill:#ffffff;fill-opacity:1;fill-rule:nonzero;stroke:none"
         id="path3925"
         inkscape:connector-curvature="0" /></g><g
       id="g3927"><g
         id="g3929"
         clip-path="url(#clipPath3931)"><g
           id="g3935"
           transform="translate(161.6615,130.8865)"><path
             d="m 0,0 4.398,0.433 0.314,-1.296 c 1.06,0.824 2.788,1.256 4.359,1.256 2.749,0 3.377,-1.296 3.377,-5.459 l 0,-14.726 -5.066,0 0,15.473 c 0,0.981 -0.157,1.414 -0.863,1.414 0,0 -0.59,0 -1.493,-0.394 l 0,-16.493 -5.026,0 L 0,0 z"
             style="fill:#ffffff;fill-opacity:1;fill-rule:nonzero;stroke:none"
             id="path3937"
             inkscape:connector-curvature="0" /></g><g
           id="g3939"
           transform="translate(136.9032,105.5062)"><path
             d="m 0,0 c 0,3.85 3.118,4.364 6.052,4.364 2.751,0 6.014,-0.476 6.014,-4.071 l 0,-3.704 -4.694,-0.257 0,3.264 c 0,1.211 -0.404,1.725 -1.32,1.725 -0.954,0 -1.358,-0.514 -1.358,-1.725 l 0,-15.916 c 0,-1.467 0.295,-1.908 1.358,-1.908 1.027,0 1.32,0.441 1.32,1.908 l 0,3.117 4.731,0.184 0,-4.402 c 0,-3.373 -3.594,-3.813 -6.088,-3.813 -2.86,0 -6.015,0.366 -6.015,3.813 L 0,0 z"
             style="fill:#ffffff;fill-opacity:1;fill-rule:nonzero;stroke:none"
             id="path3941"
             inkscape:connector-curvature="0" /></g><g
           id="g3943"
           transform="translate(157.4433,98.7953)"><path
             d="M 0,0 C 0,1.32 -0.476,1.722 -1.101,1.722 -1.761,1.722 -2.237,1.32 -2.237,0 l 0,-9.756 c 0,-1.32 0.476,-1.76 1.136,-1.76 0.625,0 1.101,0.44 1.101,1.76 L 0,0 z m -6.969,0.695 c 0,3.632 3.081,4.072 5.868,4.072 2.752,0 5.831,-0.44 5.831,-4.072 l 0,-11.221 c 0,-3.594 -3.079,-3.998 -5.831,-3.998 -2.787,0 -5.868,0.404 -5.868,3.998 l 0,11.221 z"
             style="fill:#ffffff;fill-opacity:1;fill-rule:nonzero;stroke:none"
             id="path3945"
             inkscape:connector-curvature="0" /></g></g></g><g
       id="g3947"
       transform="translate(164.0371,108.477)"><path
         d="m 0,0 4.731,1.393 0,-25.195 -4.731,0 L 0,0 z"
         style="fill:#ffffff;fill-opacity:1;fill-rule:nonzero;stroke:none"
         id="path3949"
         inkscape:connector-curvature="0" /></g><g
       id="g3951"
       transform="translate(170.623,108.477)"><path
         d="m 0,0 4.731,1.393 0,-25.195 -4.731,0 L 0,0 z"
         style="fill:#ffffff;fill-opacity:1;fill-rule:nonzero;stroke:none"
         id="path3953"
         inkscape:connector-curvature="0" /></g><g
       id="g3955"><g
         id="g3957"
         clip-path="url(#clipPath3959)"><g
           id="g3963"
           transform="translate(184.1392,95.6036)"><path
             d="m 0,0 0,3.228 c 0,1.319 -0.439,1.724 -1.136,1.724 -0.624,0 -1.063,-0.405 -1.063,-1.724 L -2.199,0 0,0 z m -6.931,3.925 c 0,3.446 2.971,4.034 5.795,4.034 2.86,0 5.831,-0.403 5.831,-4.034 l 0,-7.042 -6.894,0 0,-3.484 c 0,-1.283 0.439,-1.723 1.063,-1.723 0.697,0 1.136,0.44 1.136,1.723 l 0,1.614 4.695,0.257 0,-2.605 c 0,-3.595 -2.971,-3.997 -5.831,-3.997 -2.824,0 -5.795,0.402 -5.795,3.997 l 0,11.26 z"
             style="fill:#ffffff;fill-opacity:1;fill-rule:nonzero;stroke:none"
             id="path3965"
             inkscape:connector-curvature="0" /></g><g
           id="g3967"
           transform="translate(195.6601,83.9417)"><path
             d="m 0,0 c -0.183,-0.294 -0.33,-0.954 -0.33,-1.541 0,-1.099 0.476,-1.43 1.137,-1.43 0.587,0 1.101,0.331 1.101,1.43 C 1.908,-0.734 1.614,0 0.513,0 L 0,0 z m 1.908,14.854 c 0,1.319 -0.514,1.723 -1.101,1.723 -0.661,0 -1.137,-0.404 -1.137,-1.723 l 0,-4.989 c 0,-1.319 0.476,-1.723 1.137,-1.723 0.587,0 1.101,0.404 1.101,1.723 l 0,4.989 z M -3.997,0.623 c -0.991,0.477 -1.687,1.32 -1.687,2.605 0,1.357 0.55,2.237 1.796,2.824 -0.66,0.623 -1.136,1.43 -1.136,2.86 l 0,6.344 c 0,3.704 2.714,4.364 5.574,4.364 l 7.703,0 0,-3.043 -1.725,0.109 c 0.037,-0.365 0.074,-0.733 0.074,-1.137 l 0,-6.637 c 0,-3.337 -3.375,-3.778 -5.905,-3.778 -0.77,0 -1.65,0 -2.347,0.111 -0.33,-0.257 -0.513,-0.66 -0.513,-1.064 0,-1.101 0.916,-1.174 2.86,-1.174 2.787,0 5.905,-0.404 5.905,-3.998 l 0,-1.21 c 0,-3.374 -3.375,-3.814 -5.905,-3.814 -2.824,0 -5.758,0.405 -5.758,3.814 0,1.357 0.403,2.201 1.064,2.824"
             style="fill:#ffffff;fill-opacity:1;fill-rule:nonzero;stroke:none"
             id="path3969"
             inkscape:connector-curvature="0" /></g><g
           id="g3971"
           transform="translate(211.0054,95.6036)"><path
             d="m 0,0 0,3.228 c 0,1.319 -0.44,1.724 -1.136,1.724 -0.624,0 -1.065,-0.405 -1.065,-1.724 L -2.201,0 0,0 z m -6.932,3.925 c 0,3.446 2.972,4.034 5.796,4.034 2.86,0 5.83,-0.403 5.83,-4.034 l 0,-7.042 -6.895,0 0,-3.484 c 0,-1.283 0.441,-1.723 1.065,-1.723 0.696,0 1.136,0.44 1.136,1.723 l 0,1.614 4.694,0.257 0,-2.605 c 0,-3.595 -2.97,-3.997 -5.83,-3.997 -2.824,0 -5.796,0.402 -5.796,3.997 l 0,11.26 z"
             style="fill:#ffffff;fill-opacity:1;fill-rule:nonzero;stroke:none"
             id="path3973"
             inkscape:connector-curvature="0" /></g><g
           id="g3975"
           transform="translate(159.5939,108.2458)"><path
             d="m 0,0 0,1.41 0,3.035 0,18.698 -5.076,0 0,-16.655 c -0.91,-0.397 -1.506,-0.397 -1.506,-0.397 -0.714,0 -0.872,0.437 -0.872,1.428 l 0,15.624 -5.116,0 0,-14.871 c 0,-4.203 0.634,-5.512 3.41,-5.512 1.578,0 3.311,0.433 4.384,1.257 l 0,-1.987 -0.014,-1.379 c -0.064,-1.114 -0.4,-1.466 -1.319,-1.466 -0.051,0 -0.099,0.003 -0.146,0.005 l 0,-3.04 c 0.036,-10e-4 0.073,-0.002 0.108,-0.002 C -3.628,-3.852 0,-3.406 0,0"
             style="fill:#ffffff;fill-opacity:1;fill-rule:nonzero;stroke:none"
             id="path3977"
             inkscape:connector-curvature="0" /></g><g
           id="g3979"
           transform="translate(179.2621,123.1224)"><path
             d="M 0,0 C 0.209,0.035 0.279,0.176 0.306,0.63 0.341,1.312 0.332,3.384 0.332,4.731 0.332,4.748 0.315,4.8 0.289,4.8 0.131,4.809 -0.595,4.809 -0.788,4.792 -1.023,4.783 -1.129,4.669 -1.224,4.53 -1.338,4.345 -1.443,4.127 -1.548,3.821 c -0.034,-0.027 -0.157,0 -0.166,0.044 0.061,0.35 0.132,1.023 0.14,1.338 l 0.149,-0.027 c 0.209,-0.07 0.42,-0.095 0.63,-0.095 l 3.794,0 c 0.026,0 0.044,0.025 0.044,0.052 l -0.01,0.402 c 0,0.018 0.036,0.071 0.062,0.071 0.472,0.025 0.752,0.148 0.796,0.148 0.017,0 0.052,-0.018 0.052,-0.044 0,-0.079 -0.009,-0.263 -0.017,-1.119 l 0,-1.766 c 0,-0.018 0.017,-0.035 0.034,-0.018 0.394,0.288 0.796,0.481 1.146,0.481 0.682,0 1.032,-0.49 1.032,-1.372 0,-0.447 0,-1.312 0.008,-1.697 0,-0.017 0.009,-0.097 0.053,-0.14 0.096,-0.096 0.166,-0.113 0.445,-0.158 0.01,-0.025 0,-0.13 -0.017,-0.148 -0.166,-0.009 -0.481,0.026 -0.961,0.026 -0.377,0 -0.674,-0.018 -0.857,-0.026 -0.018,0.026 -0.018,0.123 0,0.148 0.14,0.027 0.227,0.045 0.28,0.071 C 5.202,0.044 5.228,0.096 5.238,0.385 5.255,1.015 5.281,1.933 5.193,2.247 5.132,2.528 4.887,2.772 4.502,2.772 4.284,2.772 4.144,2.729 4.005,2.641 3.952,2.606 3.926,2.544 3.926,2.501 3.926,1.828 3.934,0.63 3.952,0.376 3.96,0.14 3.986,0.027 4.153,-0.017 c 0.096,-0.026 0.122,-0.035 0.254,-0.062 0.025,-0.025 0.017,-0.113 0,-0.148 -0.166,0 -0.455,0.026 -0.927,0.026 -0.428,0 -0.709,-0.026 -0.892,-0.026 -0.026,0.035 -0.018,0.114 0,0.148 0.113,0.018 0.201,0.036 0.279,0.062 0.132,0.044 0.158,0.149 0.166,0.42 C 3.052,0.691 3.06,1.574 3.06,1.994 3.06,3.9 3.069,4.424 3.052,4.687 3.043,4.748 3.007,4.783 2.964,4.783 2.71,4.8 1.46,4.8 1.346,4.792 1.32,4.783 1.303,4.74 1.303,4.713 1.303,3.489 1.311,1.049 1.338,0.49 1.346,0.132 1.425,0.044 1.608,-0.008 1.757,-0.052 1.81,-0.052 2.063,-0.079 c 0,-0.017 0,-0.13 -0.008,-0.148 -0.438,0 -0.77,0.026 -1.208,0.026 -0.489,0 -0.978,-0.026 -1.363,-0.026 -0.018,0.026 -0.018,0.131 0,0.148 C -0.254,-0.052 -0.123,-0.026 0,0"
             style="fill:#ffffff;fill-opacity:1;fill-rule:nonzero;stroke:none"
             id="path3981"
             inkscape:connector-curvature="0" /></g><g
           id="g3983"
           transform="translate(189.311,123.7526)"><path
             d="m 0,0 c 0.009,-0.044 -0.008,-0.149 -0.017,-0.166 -0.402,-0.464 -0.944,-0.77 -1.469,-0.77 -0.455,0 -0.831,0.149 -1.093,0.412 -0.332,0.349 -0.481,0.847 -0.481,1.389 0,0.691 0.324,1.234 0.787,1.513 0.263,0.175 0.665,0.28 0.953,0.28 0.857,0 1.163,-0.734 1.233,-1.206 C -0.078,1.425 -0.034,1.39 0.027,1.382 0.035,1.355 0.009,1.259 -0.008,1.25 -0.297,1.163 -1.565,1.084 -2.159,1.05 c -0.018,0 -0.035,-0.036 -0.035,-0.08 0,-0.288 0.114,-0.638 0.315,-0.883 0.227,-0.28 0.542,-0.402 0.909,-0.402 0.324,0 0.638,0.07 0.936,0.341 C -0.025,0.026 0,0.017 0,0 m -2.185,1.337 c 0,-0.017 0.017,-0.043 0.026,-0.043 0.192,-0.009 0.997,0.018 1.163,0.052 0.017,0.009 0.043,0.044 0.043,0.079 -0.034,0.507 -0.244,1.006 -0.637,1.006 -0.333,0 -0.587,-0.403 -0.595,-1.094"
             style="fill:#ffffff;fill-opacity:1;fill-rule:nonzero;stroke:none"
             id="path3985"
             inkscape:connector-curvature="0" /></g><g
           id="g3987"
           transform="translate(195.2569,127.9229)"><path
             d="m 0,0 c -0.341,0.192 -0.716,0.228 -1.092,0.228 -1.076,0 -1.81,-0.813 -1.81,-2.44 0,-1.513 0.708,-2.658 2.116,-2.658 0.28,0 0.708,0.052 1.005,0.332 0.219,0.21 0.42,0.507 0.577,0.831 0.026,0 0.132,-0.044 0.14,-0.078 -0.096,-0.368 -0.419,-1.033 -0.629,-1.182 -0.28,-0.087 -0.708,-0.192 -1.303,-0.192 -1.915,0 -3.008,0.989 -3.008,2.851 0,0.953 0.428,1.862 1.364,2.361 0.463,0.244 1.058,0.385 1.801,0.385 0.542,0 1.224,-0.114 1.661,-0.149 C 0.761,0.053 0.666,-0.621 0.656,-1.041 0.63,-1.075 0.481,-1.075 0.481,-1.049 0.42,-0.525 0.333,-0.193 0,0"
             style="fill:#ffffff;fill-opacity:1;fill-rule:nonzero;stroke:none"
             id="path3989"
             inkscape:connector-curvature="0" /></g><g
           id="g3991"
           transform="translate(198.3705,122.8959)"><path
             d="M 0,0 C -0.21,0 -0.533,0.026 -0.874,0.026 -1.311,0.026 -1.618,0 -1.801,0 c -0.017,0.017 -0.017,0.14 0,0.148 0.105,0.009 0.219,0.027 0.297,0.061 0.122,0.044 0.158,0.149 0.167,0.368 0.008,0.201 0.017,0.874 0.017,1.311 0,0.324 0,0.699 -0.017,0.831 0,0.07 -0.009,0.158 -0.062,0.227 -0.079,0.079 -0.157,0.105 -0.297,0.149 -0.009,0.017 -0.009,0.131 0,0.148 0.218,0.009 0.892,0.114 1.277,0.298 0,-0.219 -0.017,-0.98 -0.017,-1.478 0,-0.455 0,-1.128 0.007,-1.512 0.01,-0.236 0.062,-0.298 0.176,-0.342 C -0.192,0.192 -0.114,0.166 0.035,0.148 0.035,0.122 0.035,0.017 0,0 M -0.63,4.302 C -0.7,4.266 -1.014,4.214 -1.119,4.258 c -0.14,0.052 -0.201,0.227 -0.21,0.34 -0.017,0.106 0,0.255 0.053,0.324 0.079,0.07 0.315,0.148 0.464,0.148 0.165,0 0.279,-0.07 0.314,-0.095 0.052,-0.071 0.069,-0.202 0.069,-0.263 0,-0.166 -0.095,-0.332 -0.201,-0.41"
             style="fill:#ffffff;fill-opacity:1;fill-rule:nonzero;stroke:none"
             id="path3993"
             inkscape:connector-curvature="0" /></g><g
           id="g3995"
           transform="translate(200.0142,125.9293)"><path
             d="m 0,0 c -0.017,0 -0.034,-0.035 -0.034,-0.052 -0.009,-0.403 -0.009,-1.277 -0.009,-1.67 0,-0.254 0.009,-0.481 0.043,-0.595 0.053,-0.184 0.193,-0.305 0.411,-0.305 0.184,0 0.333,0.026 0.455,0.113 0.008,-0.017 0.017,-0.122 0,-0.166 -0.254,-0.332 -0.656,-0.438 -0.919,-0.438 -0.332,0 -0.629,0.114 -0.768,0.385 -0.114,0.219 -0.114,0.464 -0.114,1.014 0,0.447 0.008,1.277 0.008,1.627 0,0.035 -0.017,0.087 -0.043,0.096 l -0.394,0.026 c 0,0.044 0.044,0.193 0.061,0.228 0.114,0.018 0.289,0.035 0.342,0.061 0.017,0.008 0.034,0.044 0.034,0.061 l 0,0.726 c 0.28,0.095 0.691,0.332 0.805,0.446 C -0.096,1.565 -0.053,1.565 0,1.565 -0.017,1.434 -0.034,1.102 -0.034,0.429 c 0,-0.035 0.025,-0.07 0.034,-0.07 0.349,0 0.726,0.017 0.883,0.035 C 0.857,0.271 0.831,0.123 0.822,-0.008 0.542,-0.008 0.28,0 0,0"
             style="fill:#ffffff;fill-opacity:1;fill-rule:nonzero;stroke:none"
             id="path3997"
             inkscape:connector-curvature="0" /></g><g
           id="g3999"
           transform="translate(201.0382,126.3141)"><path
             d="m 0,0 c 0.122,0 0.359,-0.026 0.91,-0.026 0.445,0 0.681,0.017 0.865,0.026 0.018,-0.026 0.018,-0.122 0.01,-0.148 C 1.67,-0.175 1.566,-0.192 1.513,-0.219 1.443,-0.245 1.443,-0.332 1.452,-0.367 1.557,-0.726 2.099,-2.055 2.238,-2.361 l 0.018,0 c 0.262,0.56 0.603,1.548 0.639,1.837 0.008,0.113 0.026,0.227 -0.166,0.288 C 2.623,-0.202 2.51,-0.175 2.335,-0.148 2.318,-0.122 2.344,-0.009 2.352,0 2.51,0 2.798,-0.026 3.095,-0.026 c 0.28,0 0.551,0.017 0.735,0.026 0.009,-0.017 0.017,-0.122 0,-0.148 C 3.673,-0.175 3.568,-0.192 3.489,-0.245 3.375,-0.306 3.288,-0.419 3.192,-0.7 2.571,-2.369 1.994,-3.611 1.129,-5.141 1.032,-5.316 0.875,-5.543 0.831,-5.631 L 0.779,-5.657 c -0.123,0.026 -0.35,0.123 -0.402,0.236 -0.009,0.026 -0.018,0.079 0,0.097 0.314,0.375 0.953,1.162 1.337,1.932 -0.017,0.026 -0.07,0.139 -0.105,0.219 L 0.753,-1.058 C 0.49,-0.436 0.42,-0.28 0.228,-0.21 0.149,-0.183 0.088,-0.166 -0.026,-0.148 -0.034,-0.131 -0.017,-0.009 0,0"
             style="fill:#ffffff;fill-opacity:1;fill-rule:nonzero;stroke:none"
             id="path4001"
             inkscape:connector-curvature="0" /></g><g
           id="g4003"
           transform="translate(177.5137,120.3635)"><path
             d="M 0,0 C 0.148,0 0.559,-0.027 1.119,-0.027 1.722,-0.027 2.063,0 2.264,0 2.29,-0.017 2.29,-0.131 2.264,-0.149 2.116,-0.166 2.028,-0.183 1.923,-0.201 1.739,-0.244 1.661,-0.367 1.644,-0.665 c -0.027,-0.629 -0.009,-2.019 0,-2.474 0.008,-0.516 0.051,-0.786 0.165,-1.067 0.184,-0.542 0.656,-0.857 1.4,-0.857 0.672,0 1.302,0.289 1.399,1.461 0.06,0.638 0.06,2.01 0.026,2.78 -0.009,0.464 -0.14,0.56 -0.394,0.612 -0.122,0.027 -0.227,0.053 -0.367,0.061 -0.026,0.018 -0.026,0.122 0,0.149 0.192,0 0.481,-0.027 0.909,-0.027 0.437,0 0.664,0.027 0.866,0.027 0.017,-0.017 0.026,-0.123 0,-0.149 C 5.525,-0.175 5.403,-0.193 5.333,-0.219 5.106,-0.28 5.044,-0.393 5.027,-0.84 5.001,-1.748 4.983,-2.807 4.94,-3.375 4.834,-4.914 4.004,-5.465 2.815,-5.465 c -1.407,0 -1.985,0.647 -2.107,1.54 -0.097,0.585 -0.062,2.011 -0.07,3.26 -0.009,0.255 -0.07,0.403 -0.271,0.455 l -0.376,0.061 C -0.027,-0.131 -0.017,-0.017 0,0"
             style="fill:#ffffff;fill-opacity:1;fill-rule:nonzero;stroke:none"
             id="path4005"
             inkscape:connector-curvature="0" /></g><g
           id="g4007"
           transform="translate(183.3293,115.2313)"><path
             d="M 0,0 C 0.105,0.035 0.166,0.14 0.175,0.358 0.192,0.63 0.192,1.329 0.192,1.679 0.192,1.967 0.183,2.448 0.175,2.527 0.157,2.614 0.14,2.736 -0.21,2.85 c 0,0.018 0.008,0.114 0.026,0.132 C 0.28,3.034 0.814,3.182 1.084,3.34 1.093,3.331 1.11,3.305 1.11,3.287 1.093,3.13 1.084,2.929 1.076,2.78 1.076,2.754 1.101,2.746 1.11,2.763 1.574,3.13 1.984,3.314 2.256,3.314 2.641,3.314 2.903,3.148 3.077,2.85 3.235,2.597 3.279,2.256 3.279,1.853 3.279,1.442 3.27,0.516 3.287,0.236 c 0,-0.061 0.027,-0.123 0.079,-0.157 0.105,-0.061 0.192,-0.106 0.376,-0.132 0,-0.026 -0.009,-0.122 -0.035,-0.148 -0.131,0 -0.305,0.026 -0.822,0.026 -0.472,0 -0.699,-0.018 -0.952,-0.026 -0.018,0.018 -0.01,0.14 0,0.148 C 2.064,-0.035 2.133,-0.018 2.195,0 2.335,0.035 2.36,0.122 2.378,0.306 2.395,0.638 2.413,1.853 2.343,2.195 2.308,2.361 2.239,2.544 2.09,2.658 1.976,2.746 1.854,2.78 1.67,2.78 1.521,2.78 1.311,2.728 1.154,2.605 1.11,2.571 1.076,2.509 1.076,2.414 c 0,-0.552 0,-1.688 0.017,-2.056 0.017,-0.271 0.078,-0.323 0.192,-0.349 0.079,-0.027 0.149,-0.044 0.289,-0.062 0.008,-0.017 0,-0.122 -0.009,-0.148 -0.262,0.008 -0.551,0.026 -0.953,0.026 -0.551,0 -0.699,-0.018 -0.875,-0.026 -0.017,0.026 -0.017,0.113 0,0.148 C -0.184,-0.044 -0.096,-0.027 0,0"
             style="fill:#ffffff;fill-opacity:1;fill-rule:nonzero;stroke:none"
             id="path4009"
             inkscape:connector-curvature="0" /></g><g
           id="g4011"
           transform="translate(189.1262,115.0302)"><path
             d="M 0,0 C -0.21,0 -0.533,0.027 -0.874,0.027 -1.311,0.027 -1.618,0 -1.801,0 c -0.017,0.018 -0.017,0.14 0,0.148 0.105,0.009 0.219,0.027 0.298,0.062 0.122,0.044 0.157,0.149 0.166,0.368 0.008,0.2 0.017,0.874 0.017,1.311 0,0.324 0,0.699 -0.017,0.83 0,0.069 -0.009,0.158 -0.062,0.228 -0.079,0.078 -0.157,0.104 -0.297,0.149 -0.009,0.017 -0.009,0.13 0,0.148 0.218,0.009 0.892,0.113 1.277,0.297 0,-0.219 -0.017,-0.979 -0.017,-1.477 0,-0.455 0,-1.129 0.007,-1.513 C -0.419,0.315 -0.367,0.254 -0.253,0.21 -0.192,0.193 -0.114,0.166 0.035,0.148 0.035,0.122 0.035,0.018 0,0 m -0.629,4.302 c -0.07,-0.035 -0.385,-0.088 -0.49,-0.044 -0.14,0.052 -0.201,0.227 -0.21,0.341 -0.017,0.105 0,0.253 0.053,0.324 0.079,0.07 0.314,0.148 0.463,0.148 0.166,0 0.28,-0.07 0.315,-0.096 0.052,-0.07 0.069,-0.201 0.069,-0.262 0,-0.167 -0.095,-0.333 -0.2,-0.411"
             style="fill:#ffffff;fill-opacity:1;fill-rule:nonzero;stroke:none"
             id="path4013"
             inkscape:connector-curvature="0" /></g><g
           id="g4015"
           transform="translate(189.2142,118.449)"><path
             d="m 0,0 c 0.314,-0.009 0.55,-0.026 0.9,-0.026 0.411,0 0.656,0.017 0.84,0.026 0.017,-0.017 0.017,-0.131 0,-0.149 C 1.618,-0.175 1.495,-0.202 1.452,-0.228 1.39,-0.263 1.399,-0.315 1.408,-0.341 1.513,-0.691 2.046,-2.046 2.15,-2.3 c 0.009,-0.008 0.027,-0.008 0.027,0 0.166,0.394 0.533,1.356 0.629,1.696 0.079,0.263 0.027,0.324 -0.078,0.359 -0.105,0.052 -0.228,0.079 -0.385,0.105 -0.008,0.026 0,0.123 0.017,0.14 0.096,0 0.499,-0.026 0.735,-0.026 0.245,0 0.533,0.017 0.682,0.026 0.017,-0.017 0.017,-0.122 0,-0.149 C 3.698,-0.166 3.602,-0.175 3.506,-0.209 3.357,-0.263 3.253,-0.368 3.156,-0.568 2.929,-1.067 2.579,-1.906 2.299,-2.631 2.169,-2.982 2.081,-3.244 2.029,-3.428 1.923,-3.419 1.731,-3.419 1.661,-3.437 1.591,-3.218 1.504,-3.008 1.408,-2.728 1.216,-2.195 0.927,-1.487 0.752,-1.032 0.48,-0.323 0.429,-0.28 0.219,-0.202 0.096,-0.166 0.044,-0.157 -0.017,-0.149 -0.035,-0.122 -0.017,-0.009 0,0"
             style="fill:#ffffff;fill-opacity:1;fill-rule:nonzero;stroke:none"
             id="path4017"
             inkscape:connector-curvature="0" /></g><g
           id="g4019"
           transform="translate(196.0465,115.8875)"><path
             d="m 0,0 c 0.009,-0.045 -0.008,-0.149 -0.017,-0.166 -0.402,-0.464 -0.944,-0.77 -1.469,-0.77 -0.455,0 -0.831,0.149 -1.093,0.411 -0.332,0.35 -0.481,0.848 -0.481,1.39 0,0.691 0.324,1.233 0.787,1.513 0.262,0.175 0.665,0.28 0.953,0.28 0.857,0 1.163,-0.735 1.233,-1.207 C -0.078,1.425 -0.034,1.39 0.026,1.381 0.035,1.355 0.009,1.258 -0.008,1.25 -0.297,1.162 -1.565,1.084 -2.159,1.049 c -0.018,0 -0.035,-0.035 -0.035,-0.079 0,-0.289 0.113,-0.638 0.315,-0.883 0.227,-0.28 0.542,-0.402 0.909,-0.402 0.324,0 0.639,0.07 0.936,0.341 C -0.026,0.026 0,0.017 0,0 m -2.185,1.337 c 0,-0.017 0.017,-0.044 0.026,-0.044 0.192,-0.008 0.996,0.017 1.163,0.053 0.017,0.009 0.044,0.044 0.044,0.079 -0.036,0.506 -0.245,1.005 -0.639,1.005 -0.332,0 -0.586,-0.402 -0.594,-1.093"
             style="fill:#ffffff;fill-opacity:1;fill-rule:nonzero;stroke:none"
             id="path4021"
             inkscape:connector-curvature="0" /></g><g
           id="g4023"
           transform="translate(199.0725,118.3266)"><path
             d="m 0,0 c 0.008,-0.017 0.008,-0.132 0,-0.166 -0.018,-0.123 -0.201,-0.49 -0.315,-0.63 0,-0.009 -0.062,-0.025 -0.079,-0.025 -0.156,0.174 -0.394,0.313 -0.612,0.313 -0.139,0 -0.253,-0.078 -0.349,-0.2 -0.026,-0.044 -0.062,-0.132 -0.062,-0.21 0,-0.464 0.009,-1.687 0.026,-1.819 0.01,-0.201 0.044,-0.297 0.184,-0.341 0.14,-0.044 0.272,-0.052 0.411,-0.07 0.008,-0.027 0,-0.122 -0.026,-0.148 -0.201,0 -0.612,0.026 -1.058,0.026 -0.263,0 -0.734,-0.026 -0.883,-0.026 -0.017,0.026 -0.017,0.121 0,0.148 0.105,0.018 0.227,0.035 0.306,0.062 0.078,0.035 0.131,0.104 0.14,0.323 0.017,0.148 0.026,0.804 0.026,1.417 0,0.323 0,0.62 -0.017,0.76 -0.009,0.096 -0.018,0.218 -0.385,0.35 0,0.026 0.008,0.122 0.026,0.131 0.367,0.035 0.927,0.175 1.224,0.35 0.026,0 0.052,-0.026 0.052,-0.035 -0.017,-0.149 -0.034,-0.578 -0.034,-0.718 0,-0.017 0.026,-0.017 0.034,-0.008 0.158,0.193 0.297,0.35 0.482,0.516 0.121,0.105 0.306,0.219 0.489,0.219 C -0.21,0.219 -0.07,0.131 0,0"
             style="fill:#ffffff;fill-opacity:1;fill-rule:nonzero;stroke:none"
             id="path4025"
             inkscape:connector-curvature="0" /></g><g
           id="g4027"
           transform="translate(201.4684,117.5396)"><path
             d="M 0,0 C -0.017,-0.018 -0.122,-0.027 -0.14,0 -0.183,0.332 -0.28,0.611 -0.507,0.734 -0.63,0.796 -0.743,0.83 -0.892,0.83 c -0.28,0 -0.507,-0.175 -0.507,-0.462 0,-0.281 0.096,-0.438 0.795,-0.797 0.7,-0.349 0.857,-0.621 0.857,-1.049 0,-0.673 -0.638,-1.11 -1.416,-1.11 -0.35,0 -0.717,0.079 -0.962,0.175 -0.027,0.236 -0.044,0.778 -0.052,1.005 0.008,0.018 0.096,0.035 0.14,0.035 0.095,-0.49 0.28,-0.77 0.533,-0.918 0.149,-0.078 0.315,-0.114 0.437,-0.114 0.324,0 0.56,0.166 0.56,0.464 0,0.28 -0.158,0.437 -0.595,0.673 -0.786,0.428 -1.005,0.726 -1.005,1.207 0,0.585 0.437,1.067 1.303,1.067 0.148,0 0.375,-0.019 0.541,-0.045 C -0.096,0.935 0.034,0.927 0.104,0.927 0.044,0.673 0.017,0.332 0,0"
             style="fill:#ffffff;fill-opacity:1;fill-rule:nonzero;stroke:none"
             id="path4029"
             inkscape:connector-curvature="0" /></g><g
           id="g4031"
           transform="translate(203.8559,115.0302)"><path
             d="M 0,0 C -0.211,0 -0.534,0.027 -0.875,0.027 -1.312,0.027 -1.618,0 -1.802,0 c -0.017,0.018 -0.017,0.14 0,0.148 0.105,0.009 0.219,0.027 0.298,0.062 0.122,0.044 0.157,0.149 0.166,0.368 0.009,0.2 0.017,0.874 0.017,1.311 0,0.324 0,0.699 -0.017,0.83 0,0.069 -0.009,0.158 -0.061,0.228 -0.079,0.078 -0.158,0.104 -0.298,0.149 -0.009,0.017 -0.009,0.13 0,0.148 0.219,0.009 0.892,0.113 1.277,0.297 0,-0.219 -0.018,-0.979 -0.018,-1.477 0,-0.455 0,-1.129 0.009,-1.513 C -0.42,0.315 -0.368,0.254 -0.254,0.21 -0.193,0.193 -0.114,0.166 0.034,0.148 0.034,0.122 0.034,0.018 0,0 M -0.63,4.302 C -0.7,4.267 -1.014,4.214 -1.119,4.258 c -0.14,0.052 -0.202,0.227 -0.21,0.341 -0.018,0.105 0,0.253 0.052,0.324 0.078,0.07 0.314,0.148 0.463,0.148 0.167,0 0.28,-0.07 0.316,-0.096 0.051,-0.07 0.069,-0.201 0.069,-0.262 0,-0.167 -0.096,-0.333 -0.201,-0.411"
             style="fill:#ffffff;fill-opacity:1;fill-rule:nonzero;stroke:none"
             id="path4033"
             inkscape:connector-curvature="0" /></g><g
           id="g4035"
           transform="translate(205.5866,118.0641)"><path
             d="m 0,0 c -0.017,0 -0.035,-0.035 -0.035,-0.053 -0.008,-0.402 -0.008,-1.276 -0.008,-1.67 0,-0.253 0.008,-0.48 0.043,-0.594 0.053,-0.184 0.193,-0.306 0.412,-0.306 0.183,0 0.332,0.026 0.454,0.114 0.008,-0.018 0.017,-0.123 0,-0.166 -0.254,-0.332 -0.656,-0.437 -0.919,-0.437 -0.332,0 -0.629,0.113 -0.769,0.384 -0.113,0.219 -0.113,0.463 -0.113,1.014 0,0.446 0.009,1.276 0.009,1.627 0,0.034 -0.018,0.087 -0.044,0.096 l -0.394,0.026 c 0,0.044 0.044,0.193 0.061,0.228 0.114,0.017 0.289,0.034 0.341,0.06 0.018,0.009 0.036,0.045 0.036,0.062 l 0,0.725 c 0.279,0.097 0.69,0.332 0.804,0.447 C -0.096,1.565 -0.053,1.565 0,1.565 -0.017,1.434 -0.035,1.102 -0.035,0.429 c 0,-0.036 0.026,-0.07 0.035,-0.07 0.35,0 0.726,0.017 0.883,0.034 C 0.857,0.271 0.831,0.122 0.822,-0.009 0.542,-0.009 0.28,0 0,0"
             style="fill:#ffffff;fill-opacity:1;fill-rule:nonzero;stroke:none"
             id="path4037"
             inkscape:connector-curvature="0" /></g><g
           id="g4039"
           transform="translate(206.6887,118.449)"><path
             d="M 0,0 C 0.122,0 0.359,-0.026 0.909,-0.026 1.355,-0.026 1.591,-0.009 1.775,0 1.792,-0.026 1.792,-0.122 1.784,-0.149 1.67,-0.175 1.565,-0.193 1.513,-0.219 1.443,-0.245 1.443,-0.332 1.452,-0.368 1.556,-0.726 2.098,-2.055 2.238,-2.361 l 0.018,0 c 0.262,0.56 0.603,1.547 0.638,1.836 0.009,0.114 0.026,0.227 -0.166,0.289 -0.106,0.034 -0.219,0.061 -0.394,0.087 -0.017,0.027 0.009,0.14 0.018,0.149 0.157,0 0.446,-0.026 0.743,-0.026 0.28,0 0.551,0.017 0.734,0.026 0.009,-0.017 0.018,-0.122 0,-0.149 C 3.672,-0.175 3.568,-0.193 3.489,-0.245 3.375,-0.306 3.287,-0.42 3.192,-0.7 2.571,-2.369 1.994,-3.611 1.128,-5.142 1.031,-5.317 0.875,-5.544 0.831,-5.631 L 0.778,-5.657 c -0.122,0.026 -0.349,0.123 -0.402,0.236 -0.009,0.026 -0.017,0.079 0,0.096 0.315,0.376 0.953,1.163 1.338,1.933 -0.018,0.026 -0.071,0.139 -0.105,0.218 L 0.752,-1.058 C 0.49,-0.438 0.419,-0.28 0.227,-0.209 0.148,-0.183 0.088,-0.166 -0.026,-0.149 -0.035,-0.131 -0.018,-0.009 0,0"
             style="fill:#ffffff;fill-opacity:1;fill-rule:nonzero;stroke:none"
             id="path4041"
             inkscape:connector-curvature="0" /></g><g
           id="g4043"
           transform="translate(181.2725,108.926)"><path
             d="m 0,0 c 0,-0.673 -0.27,-1.224 -0.804,-1.557 -0.21,-0.14 -0.621,-0.288 -1.014,-0.288 -1.242,0 -1.784,0.883 -1.784,1.828 0,0.672 0.315,1.144 0.761,1.442 0.288,0.193 0.717,0.324 1.119,0.324 C -0.638,1.749 0,0.996 0,0 M -2.264,1.416 C -2.5,1.233 -2.632,0.865 -2.632,0.192 c 0,-1.154 0.412,-1.819 0.98,-1.819 0.132,0 0.28,0.044 0.368,0.131 0.236,0.237 0.305,0.657 0.305,1.233 0,0.997 -0.324,1.793 -0.962,1.793 -0.087,0 -0.244,-0.044 -0.323,-0.114"
             style="fill:#ffffff;fill-opacity:1;fill-rule:nonzero;stroke:none"
             id="path4045"
             inkscape:connector-curvature="0" /></g><g
           id="g4047"
           transform="translate(182.0168,107.3776)"><path
             d="m 0,0 c 0.131,0.053 0.149,0.175 0.149,0.324 0.008,0.621 0.008,1.6 0.008,2.431 0,0.017 -0.008,0.061 -0.035,0.061 L -0.28,2.842 c 0,0.036 0.035,0.166 0.061,0.184 0.114,0.026 0.314,0.095 0.359,0.131 0.017,0.009 0.035,0.035 0.035,0.052 0,0.997 0.28,1.687 1.066,2.23 0.298,0.209 0.604,0.306 0.804,0.306 0.394,0 0.63,-0.175 0.709,-0.324 C 2.763,5.395 2.763,5.36 2.754,5.334 2.728,5.237 2.466,4.871 2.386,4.818 2.369,4.801 2.326,4.801 2.308,4.809 2.124,5.019 1.792,5.343 1.495,5.343 1.399,5.343 1.311,5.307 1.241,5.237 1.084,5.054 1.031,4.678 1.031,3.83 1.031,3.672 1.031,3.34 1.04,3.227 1.04,3.209 1.058,3.174 1.084,3.174 1.565,3.192 1.757,3.192 1.88,3.201 1.854,3.104 1.827,2.965 1.81,2.816 1.6,2.816 1.267,2.824 1.075,2.824 1.058,2.824 1.04,2.772 1.04,2.763 1.049,1.627 1.058,0.753 1.075,0.394 1.084,0.123 1.145,0.035 1.311,-0.008 1.425,-0.035 1.477,-0.043 1.661,-0.069 1.669,-0.088 1.652,-0.201 1.635,-0.218 c -0.332,0 -0.524,0.026 -1.032,0.026 -0.236,0 -0.725,-0.026 -0.918,-0.026 -0.017,0.017 -0.017,0.123 0,0.149 C -0.192,-0.052 -0.07,-0.026 0,0"
             style="fill:#ffffff;fill-opacity:1;fill-rule:nonzero;stroke:none"
             id="path4049"
             inkscape:connector-curvature="0" /></g><g
           id="g4051"
           transform="translate(185.4939,112.4927)"><path
             d="m 0,0 c 0.261,0.009 0.743,-0.027 1.101,-0.027 0.236,0 0.385,0.009 0.455,0.019 0.035,-0.097 0.113,-0.211 0.306,-0.455 0.726,-0.936 2.334,-2.973 2.868,-3.629 0.017,0 0.009,0.009 0.017,0.009 0.009,1.084 0.027,2.886 -0.035,3.366 -0.034,0.288 -0.105,0.411 -0.358,0.49 -0.14,0.034 -0.263,0.061 -0.499,0.079 C 3.838,-0.122 3.847,-0.018 3.864,0 4.118,0 4.511,-0.027 4.922,-0.027 5.229,-0.027 5.648,0 5.761,0 5.788,-0.027 5.788,-0.131 5.761,-0.148 5.622,-0.174 5.516,-0.183 5.42,-0.219 5.176,-0.297 5.123,-0.463 5.106,-0.726 5.054,-1.521 5.044,-3.078 5.036,-4.179 5.036,-4.565 5.044,-5.063 5.044,-5.342 4.914,-5.333 4.555,-5.333 4.38,-5.351 4.013,-4.791 1.503,-1.556 1.145,-1.075 1.136,-1.058 1.11,-1.067 1.11,-1.084 1.093,-2.002 1.101,-4.17 1.119,-4.572 c 0.026,-0.376 0.14,-0.491 0.376,-0.543 0.13,-0.026 0.28,-0.043 0.463,-0.069 0.017,-0.019 0.017,-0.132 -0.008,-0.149 -0.184,0 -0.569,0.026 -0.98,0.026 -0.516,0 -0.805,-0.026 -0.97,-0.026 -0.018,0.026 -0.018,0.13 0,0.149 0.183,0.026 0.314,0.034 0.428,0.069 0.184,0.052 0.28,0.158 0.315,0.524 0.043,0.421 0.078,2.003 0.088,3.752 0,0.201 -0.115,0.446 -0.289,0.542 -0.175,0.096 -0.323,0.131 -0.56,0.149 -0.009,0.017 0,0.13 0.018,0.148"
             style="fill:#ffffff;fill-opacity:1;fill-rule:nonzero;stroke:none"
             id="path4053"
             inkscape:connector-curvature="0" /></g><g
           id="g4055"
           transform="translate(194.3033,108.0167)"><path
             d="m 0,0 c 0.009,-0.044 -0.009,-0.149 -0.018,-0.167 -0.402,-0.463 -0.943,-0.769 -1.468,-0.769 -0.455,0 -0.831,0.149 -1.093,0.411 -0.332,0.349 -0.481,0.848 -0.481,1.39 0,0.691 0.323,1.233 0.787,1.513 0.262,0.175 0.664,0.28 0.953,0.28 0.857,0 1.163,-0.735 1.233,-1.207 C -0.079,1.425 -0.035,1.39 0.026,1.38 0.035,1.355 0.009,1.259 -0.009,1.25 -0.297,1.162 -1.565,1.083 -2.16,1.049 c -0.017,0 -0.035,-0.035 -0.035,-0.079 0,-0.289 0.114,-0.638 0.315,-0.883 0.227,-0.28 0.543,-0.402 0.909,-0.402 0.324,0 0.639,0.07 0.936,0.341 C -0.027,0.026 0,0.017 0,0 m -2.186,1.338 c 0,-0.018 0.018,-0.045 0.026,-0.045 0.193,-0.008 0.997,0.018 1.163,0.053 0.017,0.009 0.044,0.044 0.044,0.079 -0.035,0.506 -0.244,1.005 -0.639,1.005 -0.332,0 -0.585,-0.401 -0.594,-1.092"
             style="fill:#ffffff;fill-opacity:1;fill-rule:nonzero;stroke:none"
             id="path4057"
             inkscape:connector-curvature="0" /></g><g
           id="g4059"
           transform="translate(194.3647,110.5782)"><path
             d="m 0,0 c 0.227,0 0.436,-0.026 1.006,-0.026 0.34,0 0.638,0.018 0.83,0.026 C 1.854,-0.026 1.854,-0.122 1.845,-0.149 1.731,-0.175 1.626,-0.202 1.582,-0.219 1.504,-0.253 1.495,-0.315 1.504,-0.358 c 0.078,-0.298 0.525,-1.696 0.603,-1.924 0.009,-0.009 0.026,-0.018 0.035,0 0.175,0.428 0.648,1.626 0.761,2.107 0.07,-0.018 0.332,-0.008 0.402,0 0.026,-0.114 0.104,-0.341 0.21,-0.612 0.218,-0.577 0.525,-1.355 0.603,-1.539 0.009,0 0.027,-0.017 0.035,0 0.149,0.368 0.489,1.347 0.604,1.775 0.025,0.149 0.025,0.245 -0.158,0.315 -0.096,0.034 -0.254,0.07 -0.403,0.087 -0.017,0.027 0,0.132 0.019,0.149 0.104,0 0.472,-0.026 0.795,-0.026 0.227,0 0.472,0.018 0.664,0.026 0.018,-0.026 0.027,-0.122 0,-0.149 C 5.57,-0.166 5.482,-0.183 5.421,-0.219 5.246,-0.289 5.176,-0.351 5.063,-0.612 4.809,-1.233 4.179,-2.903 4.013,-3.428 3.917,-3.409 3.707,-3.428 3.611,-3.445 3.436,-2.929 2.929,-1.591 2.798,-1.346 2.79,-1.329 2.771,-1.321 2.754,-1.338 2.605,-1.688 2.098,-2.938 1.923,-3.428 1.836,-3.409 1.618,-3.419 1.539,-3.436 1.355,-2.79 0.97,-1.574 0.7,-0.848 0.559,-0.455 0.489,-0.289 0.297,-0.21 0.21,-0.175 0.105,-0.166 -0.009,-0.149 -0.017,-0.132 -0.009,-0.026 0,0"
             style="fill:#ffffff;fill-opacity:1;fill-rule:nonzero;stroke:none"
             id="path4061"
             inkscape:connector-curvature="0" /></g><g
           id="g4063"
           transform="translate(200.9059,112.4927)"><path
             d="M 0,0 C 0.289,0 0.691,-0.027 1.137,-0.027 1.608,-0.027 2.072,-0.008 2.203,0 2.23,-0.018 2.23,-0.122 2.212,-0.148 2.133,-0.157 1.993,-0.193 1.923,-0.21 1.801,-0.244 1.775,-0.323 1.836,-0.463 c 0.201,-0.438 0.935,-1.828 1.075,-2.073 0.009,-0.009 0.035,-0.009 0.044,0 0.28,0.464 0.822,1.505 1.005,1.959 0.088,0.21 0.027,0.306 -0.183,0.358 -0.113,0.036 -0.192,0.045 -0.375,0.071 -0.019,0.034 -0.01,0.13 0.017,0.148 0.148,0 0.594,-0.027 0.9,-0.027 0.323,0 0.595,0.019 0.84,0.027 0.017,-0.008 0.017,-0.122 0,-0.148 C 5.054,-0.166 4.923,-0.183 4.827,-0.21 4.581,-0.28 4.433,-0.42 4.223,-0.769 3.908,-1.32 3.305,-2.396 3.13,-2.763 3.077,-2.877 3.052,-2.981 3.052,-3.121 c 0,-0.411 0.008,-1.032 0.017,-1.47 0.008,-0.287 0.044,-0.472 0.297,-0.532 0.122,-0.027 0.219,-0.044 0.428,-0.07 0.01,-0.017 0,-0.123 -0.017,-0.14 -0.297,0 -0.778,0.026 -1.25,0.026 -0.621,0 -0.926,-0.026 -1.172,-0.026 -0.026,0.009 -0.017,0.13 0,0.14 0.21,0.026 0.341,0.043 0.455,0.07 0.244,0.052 0.262,0.271 0.262,0.515 0.018,0.411 0.018,0.996 0.018,1.355 0,0.14 -0.018,0.281 -0.079,0.421 C 1.81,-2.405 1.303,-1.443 0.987,-0.909 0.612,-0.271 0.524,-0.253 0.289,-0.183 0.166,-0.157 0.096,-0.148 0,-0.148 -0.027,-0.122 -0.017,-0.018 0,0"
             style="fill:#ffffff;fill-opacity:1;fill-rule:nonzero;stroke:none"
             id="path4065"
             inkscape:connector-curvature="0" /></g><g
           id="g4067"
           transform="translate(208.7143,108.926)"><path
             d="m 0,0 c 0,-0.673 -0.271,-1.224 -0.804,-1.557 -0.211,-0.14 -0.621,-0.288 -1.015,-0.288 -1.242,0 -1.784,0.883 -1.784,1.828 0,0.672 0.315,1.144 0.761,1.442 0.289,0.193 0.717,0.324 1.119,0.324 C -0.638,1.749 0,0.996 0,0 M -2.265,1.416 C -2.501,1.233 -2.632,0.865 -2.632,0.192 c 0,-1.154 0.411,-1.819 0.979,-1.819 0.132,0 0.28,0.044 0.368,0.131 0.235,0.237 0.306,0.657 0.306,1.233 0,0.997 -0.324,1.793 -0.963,1.793 -0.087,0 -0.244,-0.044 -0.323,-0.114"
             style="fill:#ffffff;fill-opacity:1;fill-rule:nonzero;stroke:none"
             id="path4069"
             inkscape:connector-curvature="0" /></g><g
           id="g4071"
           transform="translate(211.8788,110.4557)"><path
             d="m 0,0 c 0.008,-0.017 0.008,-0.131 0,-0.166 -0.018,-0.123 -0.201,-0.49 -0.315,-0.629 0,-0.01 -0.061,-0.027 -0.079,-0.027 -0.157,0.175 -0.393,0.314 -0.612,0.314 -0.14,0 -0.254,-0.078 -0.349,-0.2 -0.027,-0.044 -0.062,-0.132 -0.062,-0.21 0,-0.464 0.009,-1.688 0.026,-1.819 0.009,-0.201 0.044,-0.297 0.185,-0.341 0.139,-0.043 0.27,-0.052 0.41,-0.069 0.009,-0.026 0,-0.123 -0.026,-0.149 -0.201,0 -0.612,0.026 -1.058,0.026 -0.262,0 -0.735,-0.026 -0.883,-0.026 -0.017,0.026 -0.017,0.123 0,0.149 0.105,0.017 0.227,0.034 0.306,0.061 0.079,0.035 0.132,0.105 0.139,0.323 0.018,0.148 0.027,0.805 0.027,1.417 0,0.323 0,0.62 -0.017,0.76 -0.01,0.096 -0.017,0.218 -0.385,0.35 0,0.026 0.008,0.122 0.026,0.131 0.367,0.035 0.927,0.175 1.224,0.35 0.026,0 0.052,-0.026 0.052,-0.036 -0.017,-0.148 -0.034,-0.577 -0.034,-0.717 0,-0.017 0.026,-0.017 0.034,-0.008 0.158,0.193 0.298,0.35 0.482,0.516 0.122,0.105 0.305,0.219 0.489,0.219 C -0.21,0.219 -0.07,0.131 0,0"
             style="fill:#ffffff;fill-opacity:1;fill-rule:nonzero;stroke:none"
             id="path4073"
             inkscape:connector-curvature="0" /></g><g
           id="g4075"
           transform="translate(214.0121,110.552)"><path
             d="M 0,0 C 0.516,-0.008 1.093,0.018 1.53,0.07 1.547,0.052 1.557,-0.053 1.53,-0.087 1.189,-0.157 1.032,-0.245 0.883,-0.403 0.647,-0.63 0.297,-0.988 0.07,-1.25 c -0.017,-0.009 0,-0.018 0,-0.035 0.192,-0.341 1.032,-1.478 1.382,-1.775 0.175,-0.149 0.271,-0.167 0.532,-0.184 0.009,-0.018 0,-0.131 -0.017,-0.149 -0.148,-0.026 -0.9,-0.043 -1.093,-0.026 -0.149,0.009 -0.323,0.07 -0.463,0.227 -0.228,0.236 -0.63,0.875 -0.901,1.26 -0.061,0.096 -0.122,0.183 -0.227,0.21 l 0.018,-1.067 c 0.008,-0.324 0.069,-0.367 0.253,-0.411 0.087,-0.018 0.114,-0.027 0.245,-0.044 0.018,-0.035 0.008,-0.122 -0.009,-0.149 -0.21,0 -0.498,0.027 -0.979,0.027 -0.332,0 -0.603,-0.027 -0.857,-0.027 -0.008,0.027 -0.008,0.131 0,0.149 0.113,0.017 0.192,0.026 0.289,0.061 0.096,0.043 0.139,0.114 0.157,0.341 0.018,0.245 0.018,1.207 0.018,1.6 -0.01,2.177 -0.01,2.842 -0.027,3.105 -0.009,0.122 -0.035,0.217 -0.175,0.262 -0.07,0.017 -0.139,0.035 -0.279,0.043 -0.018,0.027 -0.018,0.131 0,0.149 0.611,0.035 1.11,0.14 1.39,0.253 0.017,0 0.052,-0.043 0.052,-0.069 -0.052,-0.106 -0.07,-0.228 -0.078,-0.98 -0.018,-0.577 -0.018,-0.551 -0.018,-3.103 0.114,0.017 0.254,0.096 0.402,0.219 0.315,0.279 0.831,0.864 0.831,1.013 0,0.061 -0.027,0.105 -0.131,0.131 -0.114,0.035 -0.351,0.062 -0.402,0.071 C -0.027,-0.123 -0.027,-0.018 0,0"
             style="fill:#ffffff;fill-opacity:1;fill-rule:nonzero;stroke:none"
             id="path4077"
             inkscape:connector-curvature="0" /></g></g></g></g></svg>