<?xml version="1.0" encoding="UTF-8" standalone="no"?>
<!-- Created with Inkscape (http://www.inkscape.org/) -->

<svg
   xmlns:dc="http://purl.org/dc/elements/1.1/"
   xmlns:cc="http://creativecommons.org/ns#"
   xmlns:rdf="http://www.w3.org/1999/02/22-rdf-syntax-ns#"
   xmlns:svg="http://www.w3.org/2000/svg"
   xmlns="http://www.w3.org/2000/svg"
   xmlns:sodipodi="http://sodipodi.sourceforge.net/DTD/sodipodi-0.dtd"
   xmlns:inkscape="http://www.inkscape.org/namespaces/inkscape"
   id="svg2985"
   version="1.1"
   inkscape:version="0.48.4 r9939"
   width="180"
   height="72"
   xml:space="preserve"
   sodipodi:docname="City_StyleGuide_ofa2.pdf"><title
     id="title3225">CUNY City College Logo</title><metadata
     id="metadata2991"><rdf:RDF><cc:Work
         rdf:about=""><dc:format>image/svg+xml</dc:format><dc:type
           rdf:resource="http://purl.org/dc/dcmitype/StillImage" /><dc:title>CUNY City College Logo</dc:title></cc:Work></rdf:RDF></metadata><defs
     id="defs2989"><clipPath
       clipPathUnits="userSpaceOnUse"
       id="clipPath3055"><path
         d="M 0,0 612,0 612,792 0,792 0,0 z"
         id="path3057"
         inkscape:connector-curvature="0" /></clipPath><clipPath
       clipPathUnits="userSpaceOnUse"
       id="clipPath3085"><path
         d="M 0,0 612,0 612,792 0,792 0,0 z"
         id="path3087"
         inkscape:connector-curvature="0" /></clipPath><clipPath
       clipPathUnits="userSpaceOnUse"
       id="clipPath3143"><path
         d="M 0,0 612,0 612,792 0,792 0,0 z"
         id="path3145"
         inkscape:connector-curvature="0" /></clipPath><clipPath
       clipPathUnits="userSpaceOnUse"
       id="clipPath3177"><path
         d="M 0,0 612,0 612,792 0,792 0,0 z"
         id="path3179"
         inkscape:connector-curvature="0" /></clipPath><clipPath
       clipPathUnits="userSpaceOnUse"
       id="clipPath3203"><path
         d="M 0,0 612,0 612,792 0,792 0,0 z"
         id="path3205"
         inkscape:connector-curvature="0" /></clipPath></defs><sodipodi:namedview
     pagecolor="#ffffff"
     bordercolor="#666666"
     borderopacity="1"
     objecttolerance="10"
     gridtolerance="10"
     guidetolerance="10"
     inkscape:pageopacity="0"
     inkscape:pageshadow="2"
     inkscape:window-width="1920"
     inkscape:window-height="1005"
     id="namedview2987"
     showgrid="false"
     fit-margin-top="0"
     fit-margin-left="0"
     fit-margin-right="0"
     fit-margin-bottom="0"
     inkscape:zoom="2.9688125"
     inkscape:cx="222.22187"
     inkscape:cy="-17.659113"
     inkscape:window-x="-9"
     inkscape:window-y="-9"
     inkscape:window-maximized="1"
     inkscape:current-layer="g2993" /><g
     id="g2993"
     inkscape:groupmode="layer"
     inkscape:label="City_StyleGuide_ofa2"
     transform="matrix(1.25,0,0,-1.25,-182.5,754.3)"><path
       d="m 146,545.84 144,0 0,57.6 -144,0 0,-57.6 z"
       style="fill:#707378;fill-opacity:1;fill-rule:nonzero;stroke:none"
       id="path3049"
       inkscape:connector-curvature="0" /><g
       id="g3051"><g
         id="g3053"
         clip-path="url(#clipPath3055)"><g
           id="g3059"
           transform="translate(161.3701,565.5376)"><path
             d="M 0,0 C -0.943,0 -1.906,-0.358 -2.628,-0.842 -3.649,-1.581 -4.37,-2.7 -4.37,-4.368 c 0,-2.175 1.061,-4.516 3.989,-4.516 0.842,0 1.785,0.4 2.327,0.779 1.242,0.823 1.863,2.238 1.863,3.864 C 3.809,-1.876 2.407,0 0,0 m -0.682,-0.821 c 1.705,0 2.789,-1.647 2.789,-4.096 0,-1.288 -0.221,-2.133 -0.763,-2.66 -0.341,-0.338 -0.802,-0.444 -1.224,-0.444 -1.605,0 -2.788,1.689 -2.788,4.181 0,1.605 0.501,2.365 1.023,2.724 0.261,0.19 0.642,0.295 0.963,0.295 m 5.736,-7.26 c -0.1,-0.087 -0.08,-0.529 0,-0.613 0.421,0 1.163,0.061 2.024,0.061 1.162,0 1.924,-0.061 2.405,-0.061 0.08,0.063 0.12,0.526 0.06,0.61 -0.581,0.063 -0.782,0.105 -1.063,0.169 -0.421,0.105 -0.561,0.316 -0.581,0.781 -0.06,1.14 -0.06,3.569 -0.08,5.617 0,0.063 0.08,0.19 0.12,0.19 0.501,0 1.384,-0.021 1.985,-0.021 0.02,0.314 0.121,0.863 0.181,1.116 -0.281,-0.021 -0.782,-0.063 -2.146,-0.063 -0.06,0 -0.12,0.105 -0.12,0.147 0,0.106 -0.02,0.338 -0.02,0.486 0.02,1.584 0.06,3.105 0.621,3.738 0.261,0.296 0.522,0.38 0.823,0.38 0.581,0 1.223,-0.464 1.664,-0.887 0.06,-0.021 0.18,-0.021 0.22,0.021 0.161,0.127 0.622,0.951 0.682,1.182 0.02,0.042 0.02,0.169 0,0.232 -0.22,0.4 -0.802,0.674 -1.464,0.674 C 9.844,5.678 9.082,5.383 8.44,4.899 6.798,3.652 6.337,2.047 6.317,-0.169 6.317,-0.19 6.277,-0.295 6.237,-0.317 6.077,-0.422 5.575,-0.591 5.255,-0.654 5.174,-0.759 5.054,-1.074 5.054,-1.264 l 1.143,-0.063 c 0.06,0 0.12,-0.148 0.12,-0.19 -0.02,-2.111 -0.02,-4.538 -0.06,-5.677 0,-0.38 -0.08,-0.613 -0.401,-0.739 L 5.054,-8.081 z M 15.22,3.823 c 0.782,-0.084 1.223,-0.19 1.604,-0.464 0.441,-0.254 0.542,-0.718 0.542,-1.035 -0.04,-4.433 -0.101,-7.875 -0.181,-8.973 -0.04,-0.823 -0.301,-1.097 -0.762,-1.245 -0.301,-0.085 -0.621,-0.148 -1.063,-0.19 -0.06,-0.063 -0.06,-0.547 0,-0.61 0.422,0 1.184,0.061 2.406,0.061 1.121,0 2.024,-0.061 2.505,-0.061 0.061,0.084 0.121,0.526 0.04,0.61 -0.501,0.063 -0.902,0.105 -1.203,0.211 -0.522,0.127 -0.782,0.422 -0.822,1.267 -0.06,1.182 -0.06,6.122 -0.02,8.297 0,0.021 0.06,0.042 0.08,0.021 1.203,-1.583 6.719,-8.846 7.782,-10.448 0.241,0.021 1.162,0.021 1.382,0 -0.02,0.694 -0.041,1.919 -0.041,2.89 0.061,3.99 0.041,6.692 0.161,8.318 0.04,0.57 0.16,0.95 0.682,1.14 0.26,0.085 0.521,0.148 0.882,0.211 0.08,0.084 0.08,0.525 0,0.588 -0.261,0 -1.444,-0.06 -2.124,-0.06 -1.222,0 -2.145,0.06 -2.667,0.06 -0.06,-0.063 -0.08,-0.504 0,-0.588 C 24.945,3.76 25.386,3.675 25.747,3.57 26.349,3.401 26.469,3.063 26.51,2.451 26.61,0.931 26.59,-3.017 26.59,-5.91 26.57,-5.931 26.55,-5.952 26.51,-5.931 25.547,-4.748 21.435,0.53 19.389,3.232 18.867,3.928 18.747,4.159 18.667,4.369 18.506,4.348 18.166,4.348 17.766,4.348 16.764,4.348 15.762,4.411 15.26,4.411 15.18,4.348 15.16,3.886 15.22,3.823 M 36.152,-6.606 c -0.742,-0.634 -1.484,-0.887 -2.286,-0.887 -0.902,0 -1.584,0.274 -2.186,0.929 -0.481,0.55 -0.782,1.437 -0.822,2.155 0,0.106 0.04,0.211 0.121,0.232 1.684,0.042 4.411,0.211 5.253,0.463 0.06,0.042 0.181,0.4 0.161,0.485 -0.201,0.063 -0.281,0.148 -0.301,0.232 C 35.932,-1.814 35.23,0 33.285,0 c -0.642,0 -1.544,-0.273 -2.166,-0.694 -1.021,-0.718 -1.762,-1.965 -1.762,-3.821 0,-1.204 0.32,-2.492 1.141,-3.357 0.601,-0.654 1.403,-1.012 2.446,-1.012 0.922,0 2.306,0.527 3.188,1.581 0.04,0.063 0.12,0.422 0.1,0.57 -0.02,0.064 -0.06,0.106 -0.08,0.127 m -3.489,5.807 c 1.083,0 1.745,-1.205 1.845,-2.261 0,-0.085 -0.06,-0.148 -0.1,-0.19 -0.401,-0.085 -2.768,-0.169 -3.409,-0.127 -0.06,0 -0.101,0.105 -0.101,0.148 0.101,1.5 0.803,2.43 1.765,2.43 m 4.033,-0.043 c 0.281,-0.021 0.541,-0.063 0.762,-0.126 0.441,-0.148 0.561,-0.401 0.862,-1.267 0.481,-1.308 1.484,-4.812 1.905,-6.501 0.22,0.042 0.741,0.042 0.962,0 0.481,1.517 1.604,4.384 2.005,5.543 0.02,0.042 0.08,0.042 0.1,0.021 0.261,-0.632 1.564,-4.278 1.925,-5.585 0.22,0.042 0.741,0.063 0.982,0.021 0.423,1.307 1.886,5.55 2.347,6.775 0.22,0.528 0.381,0.803 0.921,0.972 0.181,0.084 0.281,0.105 0.541,0.147 0.08,0.105 0.08,0.505 0,0.61 -0.38,-0.021 -0.921,-0.061 -1.743,-0.061 -0.661,0 -1.503,0.061 -1.784,0.061 -0.08,-0.084 -0.12,-0.463 -0.08,-0.61 0.421,-0.063 0.682,-0.105 0.923,-0.19 0.381,-0.126 0.381,-0.316 0.341,-0.654 -0.181,-0.866 -1.123,-3.801 -1.484,-4.773 -0.02,-0.042 -0.06,0 -0.081,0 -0.142,0.357 -0.903,2.465 -1.405,4.006 -0.24,0.719 -0.421,1.268 -0.521,1.712 -0.2,-0.042 -0.742,-0.063 -0.982,-0.021 -0.341,-1.332 -1.404,-4.265 -1.925,-5.613 -0.02,-0.043 -0.04,-0.022 -0.08,-0.022 -0.261,0.785 -1.223,4.162 -1.383,4.985 -0.041,0.148 -0.021,0.317 0.2,0.402 0.14,0.042 0.521,0.126 0.782,0.168 0.06,0.126 0.06,0.547 -0.02,0.61 -0.381,-0.021 -1.343,-0.061 -2.045,-0.061 -0.982,0 -1.664,0.061 -1.985,0.061 -0.08,-0.084 -0.12,-0.484 -0.04,-0.61 m 14.638,4.665 c 0.421,-0.063 0.681,-0.084 0.922,-0.148 0.722,-0.19 0.902,-0.359 1.684,-1.794 0.803,-1.541 1.986,-3.864 2.407,-4.877 0.1,-0.254 0.16,-0.718 0.16,-1.014 0,-0.907 0,-1.688 -0.02,-2.723 -0.02,-0.654 -0.14,-1.013 -0.682,-1.161 -0.341,-0.085 -0.842,-0.148 -1.363,-0.211 -0.08,-0.063 -0.08,-0.526 0,-0.589 0.561,0 1.464,0.061 2.886,0.061 1.162,0 2.266,-0.061 2.768,-0.061 0.08,0.063 0.121,0.505 0.06,0.589 -0.542,0.063 -0.903,0.105 -1.224,0.19 -0.542,0.126 -0.643,0.464 -0.663,1.393 -0.02,1.077 -0.04,2.132 -0.04,2.956 0,0.19 0.08,0.549 0.161,0.739 0.461,0.95 1.947,3.715 2.809,5.13 0.521,0.866 0.801,1.182 1.402,1.351 l 0.842,0.169 c 0.08,0.063 0.08,0.546 -0.02,0.588 -0.681,-0.042 -1.162,-0.06 -2.124,-0.06 -0.701,0 -1.604,0.04 -2.207,0.06 -0.1,-0.042 -0.14,-0.483 -0.06,-0.588 0.442,-0.084 0.683,-0.106 0.944,-0.169 0.562,-0.127 0.582,-0.422 0.401,-0.823 -0.381,-0.971 -1.787,-3.653 -2.488,-4.856 -0.02,-0.021 -0.1,-0.021 -0.12,-0.021 -0.421,0.739 -2.004,3.948 -2.525,5.13 -0.14,0.296 -0.12,0.507 0.14,0.591 0.141,0.042 0.502,0.106 0.722,0.148 0.1,0.084 0.08,0.525 -0.02,0.588 -0.241,-0.02 -1.544,-0.06 -2.226,-0.06 -0.922,0 -1.985,0.06 -2.486,0.06 -0.08,-0.084 -0.1,-0.504 -0.04,-0.588 M 65.73,0 C 64.787,0 63.824,-0.358 63.102,-0.842 62.081,-1.581 61.36,-2.7 61.36,-4.368 c 0,-2.175 1.061,-4.516 3.989,-4.516 0.843,0 1.786,0.4 2.327,0.779 1.242,0.823 1.863,2.238 1.863,3.864 C 69.539,-1.876 68.137,0 65.73,0 m -0.682,-0.821 c 1.705,0 2.789,-1.647 2.789,-4.096 0,-1.288 -0.221,-2.133 -0.763,-2.66 -0.341,-0.338 -0.802,-0.444 -1.223,-0.444 -1.605,0 -2.789,1.689 -2.789,4.181 0,1.605 0.501,2.365 1.023,2.724 0.261,0.19 0.642,0.295 0.963,0.295 M 75.554,0 c -0.381,0 -0.702,-0.148 -1.022,-0.401 -0.462,-0.338 -0.883,-0.823 -1.264,-1.33 -0.04,-0.021 -0.1,-0.021 -0.1,0.042 0,0.401 0.02,1.33 0.04,1.626 0,0.042 -0.06,0.084 -0.1,0.084 -0.541,-0.338 -1.722,-0.696 -2.444,-0.781 -0.06,-0.042 -0.1,-0.359 -0.1,-0.464 0.902,-0.338 1.062,-0.591 1.103,-0.887 0.02,-0.253 0.02,-0.886 0.02,-1.667 0,-1.457 -0.02,-3.209 -0.061,-3.546 -0.04,-0.38 -0.16,-0.507 -0.36,-0.591 -0.221,-0.085 -0.542,-0.148 -0.783,-0.169 -0.08,-0.084 -0.06,-0.526 0,-0.61 0.361,0.021 1.384,0.061 2.004,0.061 0.801,0 2.105,-0.061 2.345,-0.061 0.101,0.084 0.121,0.505 0.081,0.61 -0.442,0.042 -0.903,0.105 -1.264,0.211 -0.301,0.105 -0.401,0.316 -0.421,0.675 -0.02,0.422 -0.04,2.597 -0.04,4.032 0,0.274 0.1,0.591 0.16,0.718 0.261,0.443 0.662,0.886 1.063,0.886 0.461,0 0.923,-0.317 1.304,-0.654 0.02,0 0.14,0.063 0.16,0.084 0.201,0.253 0.582,1.077 0.622,1.33 0.02,0.084 0.02,0.274 0,0.338 C 76.336,-0.169 75.935,0 75.554,0 m 5.576,-0.884 c 0.321,-0.021 0.743,-0.106 0.943,-0.148 0.221,-0.063 0.261,-0.211 0.241,-0.317 -0.08,-0.359 -1.084,-1.605 -1.806,-2.239 -0.341,-0.296 -0.663,-0.443 -0.944,-0.507 0,3.547 0,5.975 0.041,7.664 0.02,0.972 0.06,1.581 0.22,1.877 0,0.063 -0.1,0.232 -0.16,0.232 -0.621,-0.274 -1.823,-0.507 -2.966,-0.591 -0.06,-0.042 -0.08,-0.462 -0.02,-0.546 0.401,-0.042 0.802,-0.085 1.003,-0.148 0.241,-0.085 0.321,-0.296 0.341,-0.57 0.04,-0.528 0.037,-2.344 0.037,-6.988 0,-1.035 0.003,-3.419 -0.037,-4.074 -0.02,-0.444 -0.12,-0.592 -0.441,-0.697 -0.241,-0.085 -0.482,-0.106 -0.742,-0.148 -0.1,-0.063 -0.08,-0.547 0,-0.61 0.321,0 0.902,0.061 2.004,0.061 0.881,0 1.644,-0.061 2.005,-0.061 0.1,0.084 0.14,0.526 0.08,0.61 -0.341,0.042 -0.622,0.105 -0.823,0.148 -0.381,0.105 -0.501,0.274 -0.501,0.781 -0.041,0.824 -0.041,1.648 -0.041,2.598 0.402,0 0.582,-0.169 0.703,-0.338 0.902,-1.161 2.045,-2.936 2.706,-3.505 0.161,-0.126 0.461,-0.336 0.903,-0.336 0.701,0 1.704,-0.021 1.965,0.042 0.08,0.063 0.14,0.526 0.08,0.61 -0.722,0.021 -1.003,0.042 -1.483,0.443 -0.802,0.697 -2.565,2.937 -3.127,3.863 -0.021,0.021 -0.021,0.105 0,0.126 l 1.985,2.132 c 0.481,0.507 0.921,0.634 1.703,0.781 0.08,0.106 0.08,0.549 0,0.633 -0.782,-0.105 -2.124,-0.189 -3.809,-0.189 -0.08,-0.064 -0.12,-0.484 -0.06,-0.589"
             style="fill:#ffffff;fill-opacity:1;fill-rule:nonzero;stroke:none"
             id="path3061"
             inkscape:connector-curvature="0" /></g><g
           id="g3063"
           transform="translate(230.0366,589.0273)"><path
             d="m 0,0 c 0.02,-0.106 0.539,-0.042 0.619,0.042 0.02,0.95 0.201,2.513 0.321,3.251 -0.9,0.061 -2.244,0.42 -3.949,0.42 -1.705,0 -3.008,-0.359 -4.072,-0.968 -2.204,-1.246 -3.186,-3.526 -3.186,-5.806 0,-4.392 2.484,-6.964 6.957,-6.964 1.224,0 2.488,0.315 3.069,0.526 0.461,0.294 1.321,1.941 1.522,2.849 -0.04,0.147 -0.381,0.337 -0.481,0.337 -0.52,-0.928 -1.001,-1.646 -1.502,-2.069 -0.501,-0.485 -1.344,-0.717 -2.206,-0.717 -3.571,0 -5.356,2.85 -5.356,6.228 0,3.568 1.665,5.827 4.573,5.827 0.963,0 1.826,-0.127 2.488,-0.465 C -0.461,2.111 -0.201,1.689 0,0 m 6.596,-1.015 c -0.943,0 -1.906,-0.358 -2.628,-0.842 -1.022,-0.739 -1.742,-1.858 -1.742,-3.526 0,-2.175 1.061,-4.516 3.989,-4.516 0.842,0 1.785,0.4 2.327,0.779 1.242,0.823 1.862,2.238 1.862,3.864 0,2.365 -1.401,4.241 -3.808,4.241 M 5.914,-1.836 c 1.705,0 2.788,-1.647 2.788,-4.096 0,-1.288 -0.22,-2.133 -0.762,-2.661 -0.341,-0.337 -0.802,-0.443 -1.224,-0.443 -1.605,0 -2.788,1.689 -2.788,4.181 0,1.605 0.501,2.365 1.023,2.724 0.261,0.19 0.642,0.295 0.963,0.295 m 5.014,-7.873 c 0.261,0 1.203,0.061 1.984,0.061 1.062,0 1.703,-0.061 2.064,-0.061 0.08,0.105 0.121,0.505 0.08,0.61 -0.441,0.042 -0.601,0.084 -0.842,0.19 -0.361,0.126 -0.421,0.38 -0.441,0.95 -0.04,0.57 -0.06,2.005 -0.06,5.32 0,1.816 0,4.201 0.02,5.278 0,1.033 0.06,1.454 0.18,1.834 0,0.042 -0.08,0.169 -0.14,0.19 -0.721,-0.338 -1.962,-0.697 -2.945,-0.781 -0.08,-0.063 -0.1,-0.462 -0.02,-0.525 0.481,-0.064 0.842,-0.128 1.043,-0.19 0.26,-0.064 0.28,-0.422 0.3,-0.655 0.061,-0.633 0.061,-3.737 0.061,-5.235 0,-3.442 -0.021,-4.898 -0.081,-5.574 -0.02,-0.296 -0.1,-0.486 -0.32,-0.591 -0.241,-0.106 -0.502,-0.148 -0.883,-0.211 -0.08,-0.126 -0.04,-0.505 0,-0.61 m 4.512,0 c 0.26,0 1.203,0.061 1.984,0.061 1.061,0 1.703,-0.061 2.064,-0.061 0.08,0.105 0.12,0.505 0.08,0.61 -0.441,0.042 -0.602,0.084 -0.842,0.19 -0.361,0.126 -0.421,0.38 -0.442,0.95 -0.04,0.57 -0.06,2.005 -0.06,5.32 0,1.816 0,4.201 0.02,5.278 0,1.033 0.061,1.454 0.181,1.834 0,0.042 -0.08,0.169 -0.141,0.19 -0.72,-0.338 -1.962,-0.697 -2.945,-0.781 -0.08,-0.063 -0.1,-0.462 -0.02,-0.525 0.482,-0.064 0.842,-0.128 1.043,-0.19 0.261,-0.064 0.281,-0.422 0.301,-0.655 0.06,-0.633 0.06,-3.737 0.06,-5.235 0,-3.442 -0.02,-4.898 -0.08,-5.574 -0.02,-0.296 -0.101,-0.486 -0.321,-0.591 -0.241,-0.106 -0.501,-0.148 -0.882,-0.211 -0.081,-0.126 -0.041,-0.505 0,-0.61 m 11.266,2.088 c -0.742,-0.634 -1.484,-0.887 -2.286,-0.887 -0.902,0 -1.584,0.274 -2.186,0.929 -0.481,0.549 -0.782,1.437 -0.822,2.155 0,0.105 0.04,0.211 0.121,0.232 1.684,0.042 4.411,0.211 5.253,0.463 0.061,0.041 0.181,0.4 0.161,0.485 -0.201,0.063 -0.281,0.147 -0.301,0.232 -0.16,1.183 -0.862,2.997 -2.807,2.997 -0.642,0 -1.544,-0.274 -2.166,-0.694 -1.021,-0.718 -1.762,-1.965 -1.762,-3.821 0,-1.204 0.32,-2.492 1.141,-3.358 0.601,-0.653 1.403,-1.011 2.446,-1.011 0.922,0 2.306,0.527 3.188,1.581 0.04,0.063 0.12,0.422 0.1,0.57 -0.02,0.064 -0.06,0.106 -0.08,0.127 m -3.489,5.806 c 1.083,0 1.745,-1.204 1.845,-2.26 0,-0.085 -0.06,-0.148 -0.1,-0.191 -0.401,-0.084 -2.768,-0.168 -3.409,-0.126 -0.06,0 -0.101,0.105 -0.101,0.148 0.101,1.5 0.803,2.429 1.765,2.429 m 8.604,0.8 c -0.742,0.021 -1.947,-0.464 -2.507,-0.926 -0.781,-0.634 -1.122,-1.542 -1.122,-2.45 0,-1.711 0.821,-2.618 1.843,-2.996 0.04,-0.021 0.06,-0.084 0.02,-0.127 -0.281,-0.232 -1.022,-0.696 -1.322,-0.886 -0.02,-0.064 -0.08,-0.275 -0.08,-0.359 0.06,-0.444 0.48,-1.035 1.262,-1.31 0.02,0 0.02,-0.063 0.02,-0.063 -0.862,-0.655 -1.703,-1.33 -1.943,-1.647 -0.08,-0.127 -0.14,-0.612 -0.14,-0.802 0,-0.676 0.34,-1.436 0.96,-1.963 0.661,-0.527 1.444,-0.758 2.407,-0.758 0.722,0 1.464,0.147 2.287,0.589 1.504,0.78 2.444,2.109 2.444,3.525 0,1.141 -0.66,1.795 -1.401,2.07 -0.662,0.253 -2.407,0.337 -3.31,0.422 -0.421,0.042 -0.803,0.232 -0.803,0.633 0,0.338 0.341,0.528 0.522,0.549 0.06,0.022 0.321,0.043 0.381,0.043 0.562,0.063 1.345,0.252 2.127,0.862 0.66,0.55 1.181,1.289 1.181,2.746 0,0.38 -0.1,0.845 -0.16,1.035 -0.02,0.042 0.02,0.106 0.04,0.106 0.22,-0.021 0.26,-0.021 0.481,-0.021 0.401,0 0.561,0.105 0.702,0.252 0.22,0.231 0.501,0.927 0.501,1.18 -0.02,0.043 -0.201,0.169 -0.261,0.148 -0.261,-0.295 -0.481,-0.464 -1.203,-0.464 -0.44,0 -0.821,0.084 -1.141,0.211 -0.581,0.233 -1.083,0.401 -1.785,0.401 m -0.642,-0.778 c 1.485,0 1.986,-1.395 1.986,-2.661 0,-0.845 -0.22,-1.5 -0.541,-1.838 -0.241,-0.274 -0.622,-0.38 -0.923,-0.38 -1.385,0 -1.987,1.415 -1.987,2.767 0,1.267 0.562,2.112 1.465,2.112 m 0.842,-12.457 c -0.782,0 -1.504,0.19 -2.066,0.676 -0.462,0.422 -0.662,0.908 -0.662,1.436 0,0.591 0.341,1.119 1.103,1.647 0.181,0.106 0.422,0.211 0.722,0.211 0.823,0 1.886,-0.105 2.468,-0.359 0.622,-0.253 1.023,-0.718 1.023,-1.499 0,-1.035 -0.722,-2.112 -2.588,-2.112 m 11.549,6.629 c -0.742,-0.634 -1.484,-0.887 -2.286,-0.887 -0.902,0 -1.584,0.274 -2.186,0.929 -0.481,0.549 -0.782,1.437 -0.822,2.155 0,0.105 0.04,0.211 0.121,0.232 1.684,0.042 4.411,0.211 5.253,0.463 0.06,0.041 0.181,0.4 0.161,0.485 -0.201,0.063 -0.281,0.147 -0.301,0.232 -0.161,1.183 -0.862,2.997 -2.807,2.997 -0.642,0 -1.544,-0.274 -2.166,-0.694 -1.021,-0.718 -1.762,-1.965 -1.762,-3.821 0,-1.204 0.32,-2.492 1.141,-3.358 0.601,-0.653 1.403,-1.011 2.446,-1.011 0.922,0 2.306,0.527 3.188,1.581 0.04,0.063 0.12,0.422 0.1,0.57 -0.02,0.064 -0.06,0.106 -0.08,0.127 m -3.489,5.806 c 1.083,0 1.745,-1.204 1.845,-2.26 0,-0.085 -0.06,-0.148 -0.1,-0.191 -0.402,-0.084 -2.768,-0.168 -3.409,-0.126 -0.061,0 -0.101,0.105 -0.101,0.148 0.101,1.5 0.802,2.429 1.765,2.429"
             style="fill:#ffffff;fill-opacity:1;fill-rule:nonzero;stroke:none"
             id="path3065"
             inkscape:connector-curvature="0" /></g><g
           id="g3067"
           transform="translate(194.9463,589.0273)"><path
             d="m 0,0 c 0.02,-0.106 0.539,-0.042 0.619,0.042 0.02,0.95 0.201,2.513 0.321,3.251 -0.9,0.061 -2.244,0.42 -3.949,0.42 -1.705,0 -3.008,-0.359 -4.072,-0.968 -2.204,-1.246 -3.186,-3.526 -3.186,-5.806 0,-4.392 2.484,-6.964 6.957,-6.964 1.224,0 2.488,0.315 3.069,0.526 0.461,0.294 1.321,1.941 1.522,2.849 -0.04,0.147 -0.381,0.337 -0.481,0.337 -0.52,-0.928 -1.001,-1.646 -1.502,-2.069 -0.501,-0.485 -1.344,-0.717 -2.206,-0.717 -3.571,0 -5.356,2.85 -5.356,6.228 0,3.568 1.665,5.827 4.573,5.827 0.963,0 1.826,-0.127 2.488,-0.465 C -0.461,2.111 -0.201,1.689 0,0 m 5.03,2.003 c 0,0.19 -0.08,0.465 -0.2,0.612 C 4.79,2.679 4.57,2.784 4.249,2.784 3.889,2.784 3.468,2.573 3.288,2.404 3.188,2.299 3.168,1.919 3.188,1.792 3.248,1.37 3.408,1.075 3.709,0.927 3.829,0.842 4.51,0.906 4.61,0.969 4.87,1.18 5.03,1.602 5.03,2.003 M 6.234,-9.099 c -0.462,0.063 -0.582,0.105 -0.843,0.169 -0.3,0.105 -0.421,0.337 -0.421,0.717 -0.02,0.95 -0.017,2.364 -0.017,3.525 0,1.288 0.017,2.744 0.017,3.694 -0.781,-0.338 -2.002,-0.591 -2.604,-0.612 -0.08,-0.063 -0.14,-0.422 -0.08,-0.507 0.401,-0.147 0.742,-0.274 0.962,-0.506 0.121,-0.148 0.141,-0.317 0.141,-0.444 0,-0.422 0.02,-1.182 0.02,-2.005 0,-1.161 0,-2.554 -0.04,-3.081 -0.04,-0.486 -0.101,-0.655 -0.361,-0.76 -0.241,-0.085 -0.522,-0.148 -0.863,-0.19 -0.08,-0.084 -0.08,-0.547 0,-0.61 0.341,0 1.123,0.061 1.964,0.061 1.022,0 1.663,-0.061 2.044,-0.061 0.081,0.063 0.141,0.505 0.081,0.61 m 5.714,6.736 c 0.02,0.314 0.121,0.862 0.181,1.158 -0.301,-0.042 -1.484,-0.106 -2.447,-0.106 -0.04,0 -0.08,0.085 -0.08,0.127 0,1.478 0.06,2.427 0.1,2.786 C 9.642,1.623 9.442,1.623 9.342,1.581 9.122,1.307 8.381,0.779 8.061,0.61 l 0,-1.794 C 8.061,-1.247 8.001,-1.332 7.98,-1.332 7.82,-1.416 7.319,-1.522 7.038,-1.564 6.958,-1.669 6.837,-2.132 6.858,-2.258 L 7.94,-2.342 c 0.081,-0.021 0.121,-0.127 0.121,-0.19 0,-0.845 -0.02,-2.745 -0.02,-3.949 0,-1.352 0.02,-1.901 0.28,-2.407 0.34,-0.675 0.981,-1.011 1.762,-1.011 0.642,0 1.484,0.274 1.986,0.927 0.04,0.084 0.1,0.59 0.06,0.654 -0.401,-0.254 -0.682,-0.359 -1.244,-0.359 -0.501,0 -1.002,0.253 -1.183,0.823 -0.08,0.275 -0.12,0.676 -0.12,1.521 -0.02,1.034 -0.02,2.893 0,3.885 0,0.021 0.04,0.106 0.08,0.106 0.762,0 1.785,-0.021 2.286,-0.021 m 0.584,0.506 c 0.321,-0.042 0.481,-0.084 0.682,-0.126 0.561,-0.169 0.781,-0.549 1.303,-1.921 0.621,-1.562 1.483,-3.905 1.924,-5.108 0.04,-0.085 0.16,-0.359 0.16,-0.38 -0.741,-1.668 -2.285,-3.757 -2.946,-4.623 -0.021,-0.042 0,-0.274 0.02,-0.337 0.18,-0.19 0.761,-0.507 1.042,-0.57 l 0.14,0.084 c 0.141,0.296 0.381,0.739 0.622,1.182 1.704,3.124 3.307,6.755 4.731,10.681 0.18,0.548 0.421,0.844 0.782,0.949 0.2,0.085 0.421,0.127 0.721,0.169 0.06,0.126 0.06,0.526 -0.02,0.61 -0.561,-0.021 -1.142,-0.061 -1.864,-0.061 -0.702,0 -1.484,0.061 -1.724,0.061 -0.08,-0.084 -0.14,-0.484 -0.08,-0.61 0.361,-0.042 0.681,-0.105 0.882,-0.169 0.381,-0.126 0.381,-0.38 0.341,-0.612 -0.141,-1.055 -1.023,-3.419 -1.644,-4.812 -0.02,-0.021 -0.06,0 -0.08,0 -0.141,0.274 -1.464,3.862 -1.805,5.066 -0.02,0.084 0,0.295 0.161,0.358 0.14,0.064 0.441,0.106 0.741,0.169 0.061,0.105 0.041,0.547 -0.04,0.61 -0.3,0 -1.182,-0.061 -2.044,-0.061 -0.862,0 -1.584,0.061 -1.945,0.061 -0.08,-0.042 -0.12,-0.484 -0.06,-0.61"
             style="fill:#ffffff;fill-opacity:1;fill-rule:nonzero;stroke:none"
             id="path3069"
             inkscape:connector-curvature="0" /></g><g
           id="g3071"
           transform="translate(156.9878,579.9277)"><path
             d="m 0,0 c -0.08,-0.084 -0.1,-0.504 0,-0.609 0.561,0.02 1.985,0.06 2.906,0.06 0.801,0 2.025,-0.04 2.928,-0.06 0.1,0.063 0.14,0.525 0.08,0.609 C 5.232,0.084 4.911,0.127 4.59,0.232 4.148,0.359 3.988,0.57 3.948,1.33 c -0.06,1.077 -0.08,6.901 -0.08,9.987 0,0.042 0.06,0.168 0.12,0.189 0.461,0.042 3.391,0.042 4.334,0.021 0.1,-0.021 0.16,-0.126 0.18,-0.231 0,-0.776 0.02,-1.721 0.02,-6.735 0,-0.486 -0.02,-2.998 -0.04,-3.505 C 8.462,0.465 8.402,0.274 8.041,0.148 7.86,0.084 7.599,0.042 7.238,0 c -0.08,-0.084 -0.08,-0.525 0,-0.609 0.381,0 1.384,0.06 2.025,0.06 0.761,0 1.824,-0.06 2.085,-0.06 0.06,0.084 0.1,0.546 0.02,0.609 -0.361,0.042 -0.522,0.084 -0.763,0.127 -0.421,0.147 -0.481,0.316 -0.521,0.992 -0.04,0.591 -0.04,3.21 -0.04,4.667 0,0.147 0.08,0.38 0.24,0.506 0.462,0.359 1.064,0.571 1.606,0.571 1.304,0 1.785,-0.887 1.886,-1.521 0.16,-0.992 0.1,-3.062 0.08,-4.096 C 13.836,0.401 13.776,0.253 13.475,0.148 13.274,0.084 12.973,0.042 12.672,0 c -0.08,-0.084 -0.06,-0.525 0,-0.609 0.281,0.02 1.204,0.039 1.825,0.06 0.901,0.021 1.803,-0.06 2.124,-0.06 0.08,0.063 0.14,0.525 0.08,0.609 -0.461,0.063 -0.762,0.127 -1.023,0.274 -0.16,0.085 -0.26,0.233 -0.26,0.486 -0.02,0.929 -0.02,2.83 -0.02,3.97 0,2.09 -0.921,3.354 -2.505,3.354 -0.722,0 -1.706,-0.421 -2.769,-1.264 -0.04,-0.021 -0.08,-0.021 -0.08,0.021 0,0.59 -0.02,3.091 0,4.476 0.02,1.559 0.04,2.234 0.04,2.382 0,0.063 -0.06,0.105 -0.12,0.126 -0.201,-0.063 -0.861,-0.295 -1.382,-0.316 -0.06,0 -0.1,-0.106 -0.1,-0.148 l 0,-0.823 c 0,-0.063 -0.06,-0.106 -0.1,-0.106 l -9.144,-0.021 c -0.722,0.021 -1.263,0.148 -1.604,0.338 -0.06,0.021 -0.221,-0.021 -0.241,-0.063 -0.06,-0.929 -0.24,-2.47 -0.381,-3.378 0.02,-0.105 0.522,-0.232 0.622,-0.168 0.301,0.876 0.541,1.506 0.802,1.925 0.18,0.294 0.461,0.462 0.742,0.462 0.762,0.021 2.466,0.042 2.807,0 0.08,0 0.161,-0.126 0.161,-0.21 C 2.146,7.852 2.126,3.4 2.085,1.753 2.045,0.76 1.965,0.338 1.323,0.211 1.023,0.148 0.622,0.063 0,0 M 23.92,1.478 C 23.178,0.844 22.436,0.591 21.634,0.591 c -0.903,0 -1.584,0.275 -2.186,0.929 -0.481,0.55 -0.782,1.437 -0.822,2.155 0,0.106 0.04,0.211 0.12,0.233 1.685,0.042 4.412,0.21 5.254,0.462 0.06,0.042 0.18,0.4 0.16,0.485 -0.2,0.063 -0.28,0.148 -0.3,0.232 -0.161,1.184 -0.863,2.997 -2.808,2.997 -0.641,0 -1.544,-0.273 -2.165,-0.694 -1.022,-0.718 -1.762,-1.965 -1.762,-3.82 0,-1.205 0.32,-2.493 1.141,-3.358 0.601,-0.653 1.403,-1.011 2.445,-1.011 0.923,0 2.306,0.526 3.189,1.58 0.04,0.063 0.12,0.423 0.1,0.57 -0.02,0.064 -0.06,0.106 -0.08,0.127 m -3.489,5.807 c 1.082,0 1.744,-1.205 1.844,-2.261 0,-0.085 -0.06,-0.148 -0.1,-0.19 -0.401,-0.085 -2.767,-0.169 -3.409,-0.127 -0.06,0 -0.1,0.106 -0.1,0.148 0.1,1.5 0.802,2.43 1.765,2.43"
             style="fill:#ffffff;fill-opacity:1;fill-rule:nonzero;stroke:none"
             id="path3073"
             inkscape:connector-curvature="0" /></g></g></g></g></svg>