<svg xmlns="http://www.w3.org/2000/svg" xmlns:xlink="http://www.w3.org/1999/xlink" version="1.1" id="Layer_1" x="0px" y="0px" width="800px" height="800px" viewBox="0 0 800 800" enable-background="new 0 0 800 800" xml:space="preserve"><g>	<path fill="#0D1957" d="M301.05,161.145c-0.465-1.806-2.114-2.993-2.804-4.799c-1.949-5.099-4.712-9.84-6.797-14.904   c-1.321-3.208-2.239-6.477-3.243-9.76c-0.741-2.425-0.771-4.924-1.59-7.604c1.103,0.718,1.753,1.305,2.292,2.209   c1.447,2.425,3.16,4.657,5.334,6.534c1.215,1.048,2.199,2.375,3.278,3.569c2.55,2.821,5.354,5.426,7.599,8.521   c0.217,0.3,0.54,0.51,0.912,0.382c0.615-0.213,0.394-0.782,0.409-1.215c0.151-4.178,0.228-8.358,0.531-12.532   c0.329-4.527,0.516-9.112,1.725-13.465c1.246-4.485,2.359-9.177,5.976-12.602c1.212-1.148,2.66-2.62,4.228-2.031   c1.488,0.558,1.153,2.638,1.261,4.123c0.217,2.993-0.301,6.063,0.409,8.984c0.927,3.817,1.561,7.674,2.181,11.538   c0.736,4.587,2.09,9.007,3.89,13.247c0.973,2.292,2.313,4.471,3.769,6.573c2.46,3.552,5.534,6.543,8.326,9.787   c0.955,1.111,2.213,1.972,3.375,2.893c2.321,1.842,4.579,3.787,7.043,5.419c1.835,1.216,3.562,2.586,5.341,3.858   c3.196,2.284,6.5,4.403,9.732,6.624c3.402,2.337,7.008,4.374,10.511,6.564c3.228,2.018,6.46,4.031,9.647,6.111   c2.029,1.324,4.111,2.618,5.926,4.203c1.606,1.401,3.532,2.398,4.894,4.129c0.8,1.018,1.961,1.77,2.939,2.647   c2.727,2.447,5.003,5.264,7.234,8.11c1.748,2.23,3.111,4.758,4.72,7.104c1.709,2.493,2.644,5.378,4.168,7.97   c0.879,1.497,1.182,3.322,1.971,4.884c1.854,3.671,2.539,7.735,4.042,11.529c0.964,2.433,1.374,5.095,1.923,7.678   c0.306,1.434,0.875,2.766,1.307,4.149c0.161,0.515,0.466,0.723,0.879,0.313c0.889-0.885,2.046-1.415,2.698-2.646   c1.729-3.261,2.925-6.714,4.249-10.141c1.219-3.155,2.784-6.209,4.707-9.067c3.071-4.569,6.886-8.295,11.301-11.586   c3.983-2.97,8.241-5.329,12.658-7.53c4.396-2.19,9.039-3.696,13.563-5.528c3.711-1.502,7.618-1.79,11.389-2.795   c4.789-1.276,9.751-1.427,14.55-2.475c5.014-1.096,10.169-1.258,15.128-2.467c4.11-1.003,8.336-1.457,12.386-2.676   c4.736-1.427,9.478-2.991,13.812-5.333c4.549-2.458,8.87-5.359,12.581-9.09c2.411-2.423,4.629-4.973,6.727-7.665   c3.754-4.817,6.757-10.042,9.539-15.475c1.223-2.388,1.831-5.061,3.441-7.256c0.383-0.522,0.407-0.899,0.978-0.077   c0.526,0.761,0.907,1.488,0.963,2.387c0.327,5.278-0.404,10.382-2.387,15.31c-0.546,1.353-0.74,2.842-1.229,4.221   c-1.206,3.408-2.353,6.847-3.774,10.166c-1.924,4.492-3.961,8.944-6.181,13.295c-1.546,3.029-3.483,5.857-5.237,8.781   c-0.327,0.546-0.608,1.121-0.736,1.874c8.415-4.96,16.623-10.153,22.814-18.038c-0.181,2.942-0.58,5.691-2.528,8.22   c-1.521,1.973-2.952,4.01-4.718,5.771c-1.455,1.452-2.964,2.887-4.313,4.404c-1.328,1.491-3.158,2.36-4.307,4.013   c-0.934,1.343-2.43,2.168-3.674,3.149c-2.804,2.211-5.378,4.747-8.503,6.548c-0.427,0.246-1.094,0.501-0.777,1.173   c0.253,0.537,0.854,0.261,1.269,0.185c4.121-0.752,8.087-1.88,11.89-3.772c2.611-1.298,5.158-2.728,7.645-4.198   c1.686-0.998,3.48-1.985,4.964-3.433c1.095-1.068,2.637-1.694,3.829-2.753c1.613-1.433,3.296-2.788,4.938-4.19   c0.354-0.303,0.659-0.792,1.188-0.539c0.655,0.313,0.378,0.941,0.234,1.396c-0.616,1.948-1.573,3.748-2.802,5.365   c-2.627,3.457-5.822,6.431-9.217,9.04c-3.113,2.394-6.416,4.61-9.723,6.786c-3.451,2.271-7.008,4.367-10.622,6.29   c-3.991,2.125-8.219,3.771-12.801,4.6c-4.867,0.881-9.754,1.311-14.649,1.81c-0.396,0.04-0.951-0.071-1.063,0.413   c-0.117,0.5,0.087,1.032,0.535,1.367c1.96,1.463,3.998,2.831,5.881,4.387c2.473,2.045,5.146,3.809,7.553,5.967   c4.722,4.234,7.13,9.83,9.846,15.296c3.006,6.048,4.823,12.425,6.252,19.021c1.776,8.196,1.707,16.357,0.392,24.489   c-0.602,3.713-1.322,7.509-2.678,11.083c-2.018,5.319-4.235,10.531-7.244,15.412c-2.104,3.413-4.342,6.734-6.959,9.719   c-2.145,2.447-4.593,4.668-7.248,6.671c-1.492,1.127-3.054,2.251-4.509,3.473c-1.752,1.47-3.863,2.531-5.881,3.662   c-4.866,2.729-10.031,4.623-15.577,5.449c-4.925,0.733-9.744-0.146-14.582-0.804c-0.687-0.093-1.371-0.314-2.082-0.068   c0.241,0.853,1.076,0.605,1.61,0.884c3.892,2.031,7.959,3.777,11.677,6.085c5.069,3.147,10.021,6.551,14.342,10.697   c1.892,1.815,3.639,3.832,5.35,5.863c2.949,3.501,5.027,7.468,7.054,11.48c0.756,1.497,1.147,3.216,1.48,4.879   c0.806,4.022,1.969,8.03,1.611,12.179c-0.474,5.504-1.274,11-3.009,16.244c-1.491,4.508-3.421,8.926-5.957,12.938   c-2.092,3.31-4.33,6.563-6.835,9.636c-1.636,2.008-3.326,4.021-4.974,6.018c-1.089,1.318-2.124,2.85-3.693,3.848   c-1.404,0.893-2.307,2.393-3.551,3.539c-2.837,2.611-5.697,5.191-8.569,7.764c-2.441,2.189-5.117,4.077-7.527,6.298   c-1.646,1.517-3.714,2.566-5.446,4.001c-2.856,2.365-5.899,4.479-8.954,6.55c-3.637,2.467-7.644,4.401-11.204,6.965   c-3.293,2.371-6.917,4.145-10.297,6.347c-2.359,1.536-4.953,2.779-7.552,3.971c-2.276,1.045-4.45,2.257-6.949,2.699   c-0.329,0.058-0.668,0.255-1.067-0.141c0.592-1.044,1.485-1.897,2.446-2.536c3.325-2.213,6.628-4.457,10.138-6.396   c4.056-2.238,7.957-4.753,11.948-7.11c4.104-2.425,8.069-5.051,11.972-7.786c3.405-2.386,6.596-5.032,9.879-7.565   c2.663-2.055,5.078-4.369,7.448-6.676c2.785-2.712,5.409-5.636,7.796-8.776c1.641-2.156,3.313-4.308,4.782-6.567   c3.011-4.624,5.411-9.556,7.45-14.72c1.523-3.856,2.201-7.847,3.226-11.789c1.852-7.11,1.896-14.32,1.273-21.543   c-0.425-4.922-2.023-9.653-3.913-14.153c-1.461-3.48-4.112-6.383-6.539-9.356c-1.611-1.973-3.444-3.762-4.914-5.86   c-0.891-1.271-2.147-2.313-3.294-3.287c-2.457-2.09-4.788-4.331-7.146-6.508c-2.36-2.178-4.75-4.355-7.123-6.518   c-1.508-1.374-3.217-2.646-4.813-3.953c-2.251-1.841-4.612-3.456-7.11-4.884c-3.565-2.038-7.171-4.008-10.803-5.933   c-4.123-2.186-7.827-5.028-11.041-8.549c-2.415-2.645-4.817-5.307-6.868-8.207c-2.597-3.675-3.64-8.048-4.77-12.374   c-2.014-7.715-2.908-15.549-3.149-23.493c-0.172-5.647,0.724-11.172,2.137-16.578c0.565-2.168,1.197-4.38,2.022-6.498   c0.259-0.668,0.398-1.345,0.217-2.403c-1.628,1.288-3.138,2.454-4.615,3.658c-3.277,2.669-6.4,5.528-10.03,7.752   c-0.543,0.333-0.623,0.295-1.026-0.053c-2.452-2.111-3.967-4.937-5.839-7.493c-2.109-2.879-3.879-6.006-6.331-8.632   c-0.058-0.063-0.213-0.035-0.355-0.054c-0.396,0.699-0.182,1.483-0.271,2.219c-0.705,5.77-1.543,11.54-3.282,17.082   c-1.509,4.81-3.502,9.487-5.847,13.959c-1.822,3.475-3.784,6.936-6.153,10.046c-2.324,3.05-4.643,6.131-7.261,8.978   c-2.185,2.375-4.383,4.756-6.765,6.896c-2.52,2.264-5.14,4.445-7.867,6.502c-3.232,2.439-6.571,4.698-10.058,6.689   c-2.402,1.372-4.933,2.598-7.408,3.858c-3.129,1.593-6.575,2.225-9.67,3.82c-0.865,0.445-1.93,0.488-2.884,0.776   c-9.401,2.835-18.994,3.09-28.679,2.184c-0.666-0.062-1.359-0.241-2.371,0.152c1.643,0.941,2.747,2.174,4.003,3.238   c1.709,1.447,3.308,3.007,4.734,4.73c3.156,3.813,5.736,7.913,7.689,12.542c3.59,8.511,4.552,17.299,3.676,26.331   c-0.526,5.415-1.481,10.829-3.057,16.032c-0.976,3.221-1.726,6.536-3.022,9.668c-1.986,4.797-3.822,9.66-5.969,14.383   c-1.848,4.064-3.887,8.062-6.127,11.922c-2.295,3.955-4.483,7.973-6.871,11.88c-1.45,2.372-2.941,4.746-4.417,7.096   c-1.364,2.171-2.776,4.361-4.29,6.466c-1.514,2.105-2.853,4.364-4.427,6.442c-1.665,2.198-3.053,4.581-4.748,6.769   c-1.266,1.635-2.448,3.366-3.684,5.041c-2.022,2.739-4.178,5.385-6.104,8.188c-2.224,3.237-4.745,6.254-7.154,9.329   c-2.369,3.023-4.706,6.11-7.302,8.974c-1.665,1.836-3.012,3.957-4.646,5.823c-2.273,2.594-4.386,5.324-6.598,7.964   c-1.616,1.928-3.167,3.974-4.738,5.959c-1.493,1.886-2.956,3.821-4.568,5.629c-1.5,1.681-3.014,3.354-4.425,5.123   c-1.609,2.017-3.567,3.753-5.263,5.707c-2.308,2.659-4.826,5.121-7.197,7.721c-3.662,4.017-7.65,7.734-11.475,11.604   c-3.566,3.606-7.441,6.864-11.261,10.19c-2.557,2.227-5.072,4.532-7.595,6.795c-2.389,2.141-4.724,4.373-7.215,6.423   c-2.482,2.042-4.544,4.601-7.061,6.593c-1.592,1.261-2.956,2.753-4.507,4.046c-1.438,1.199-3.035,2.319-4.211,3.833   c-0.97,1.249-2.348,2.031-3.484,3.094c-4.834,4.52-10.398,8.105-15.782,11.924c-1.72,1.221-3.463,2.454-5.138,3.767   c-3.104,2.43-6.505,4.479-9.703,6.794c-2.889,2.092-5.905,4.002-8.846,6.007c-2.126,1.449-4.359,2.837-6.641,4.102   c-2.525,1.4-4.835,3.197-7.388,4.537c-3.759,1.975-7.341,4.259-11.228,6.028c-2.053,0.934-3.901,2.412-5.953,3.49   c-1.029,0.541-2.079,1.015-3.125,1.513c-2.605,1.24-5.254,2.396-7.544,4.217c-0.529,0.421-1.282,0.558-1.926,0.836   c-4.633,2.011-9.149,4.272-13.796,6.261c-4.038,1.728-8.056,3.506-12.096,5.232c-4.055,1.734-8.131,3.396-12.221,5.042   c-4.958,1.996-10.012,3.708-14.987,5.627c-2.679,1.032-5.502,1.577-8.099,2.744c-2.537,1.14-5.199,1.73-7.882,2.302   c-0.726,0.155-1.465,0.336-2.311,0.015c3.045-2.629,6.342-4.728,9.712-6.737c3.404-2.03,6.649-4.344,10.129-6.229   c3.845-2.079,7.31-4.731,11.024-7.004c2.867-1.754,5.741-3.604,8.428-5.698c1.758-1.37,3.815-2.345,5.635-3.688   c2.596-1.915,5.373-3.585,8.066-5.368c2.883-1.908,5.863-3.69,8.611-5.777c3.201-2.432,6.712-4.392,9.878-6.885   c3.141-2.474,6.665-4.459,9.849-6.883c2.697-2.054,5.509-3.954,8.235-5.957c3.214-2.362,6.387-4.805,9.693-7.054   c1.603-1.091,2.978-2.541,4.641-3.513c1.823-1.066,3.307-2.543,4.975-3.775c1.652-1.221,3.506-2.234,4.91-3.836   c1.023-1.166,2.516-1.804,3.718-2.841c2.977-2.567,6.268-4.766,9.351-7.214c2.516-1.999,4.806-4.294,7.401-6.176   c1.689-1.224,3.187-2.673,4.803-3.96c1.408-1.12,2.923-2.217,4.187-3.591c1.28-1.391,2.89-2.475,4.34-3.712   c1.622-1.383,3.241-2.769,4.833-4.186c1.29-1.148,2.522-2.417,3.87-3.433c1.675-1.262,2.994-2.866,4.656-4.13   c1.772-1.346,3.089-3.22,4.955-4.53c1.211-0.85,2.181-2.054,3.277-3.077c4.128-3.855,8.109-7.872,12.058-11.913   c2.416-2.473,4.799-4.985,7.192-7.479c2.674-2.787,5.261-5.653,7.918-8.454c2.217-2.337,4.254-4.845,6.375-7.272   c1.822-2.086,3.697-4.128,5.462-6.261c1.7-2.054,3.202-4.274,4.948-6.284c2.493-2.868,4.641-5.997,7.006-8.961   c1.553-1.946,2.946-4.021,4.392-6.051c1.67-2.345,3.434-4.634,4.952-7.073c2.631-4.226,5.433-8.335,7.974-12.627   c3.039-5.135,6.047-10.264,8.831-15.547c3.228-6.125,6.122-12.379,8.856-18.734c1.106-2.572,1.92-5.232,3.013-7.785   c2.598-6.068,4.314-12.404,6.204-18.705c1.166-3.885,1.763-7.863,2.818-11.745c2.046-7.524,2.368-15.278,3.393-22.945   c0.735-5.492,1.27-10.975,1.217-16.488c-0.085-8.967-1.455-17.817-3.877-26.421c-1.548-5.5-4.254-10.608-7.592-15.321   c-2.641-3.729-5.625-7.161-9.217-9.971c-1.515-1.185-3.144-2.276-4.947-3.162c-2.438-1.199-4.619-2.904-7.279-3.752   c-0.471-0.149-0.957-0.533-1.52-0.682c-6.845-1.801-13.769-2.903-20.883-2.786c-4.834,0.079-9.711-0.109-14.469,0.64   c-5.92,0.931-11.953,1.066-17.786,2.395c-3.776,0.859-7.597,1.386-11.377,2.171c-0.23,0.047-0.475,0.217-0.677,0.172   c-0.887-0.201-1.876,1.53-2.37,0.333c-0.474-1.147,0.883-2.263,1.766-2.933c2.566-1.95,5.499-3.229,8.544-4.363   c6.376-2.371,12.956-3.812,19.59-5.216c5.014-1.061,10.107-1.552,15.096-2.592c7.107-1.482,14.318-1.8,21.493-2.529   c1.29-0.131,1.476-0.585,1.086-1.682c-1.146-3.224-1.627-6.606-2.361-9.932c-2.649-12.012-2.723-24.118-1.719-36.291   c0.534-6.471,2.264-12.698,4.237-18.814c1.253-3.88,3.141-7.614,5.182-11.163c2.203-3.83,4.727-7.48,7.695-10.829   c2.304-2.6,4.745-5.072,7.397-7.239c3.071-2.509,6.436-4.669,9.869-6.742c4.109-2.482,8.536-4.126,12.86-6.049   c1.594-0.708,3.36-1.054,5.072-1.467c1.494-0.36,2.818-1.095,4.102-1.848c1.399-0.82,1.4-1.506-0.067-2.034   c-2.617-0.942-4.592-2.724-6.585-4.492c-2.018-1.792-3.57-4.029-5.37-6.019c-1.812-2.003-3.1-4.336-4.548-6.525   c-1.613-2.44-3.096-5.027-4.408-7.693c-1.711-3.474-3.582-6.897-4.87-10.531c-1.479-4.172-3.48-8.224-3.79-12.753   c-0.025-0.366-0.413-0.838,0.144-1.085c0.393-0.175,0.593,0.269,0.883,0.435c1.766,1.008,2.354,2.988,3.563,4.449   c2.358,2.849,4.769,5.649,7.386,8.239c3.511,3.473,7.505,6.329,12.169,8.122c0.489,0.187,1.021,0.264,1.535,0.381   C300.401,161.416,300.693,161.526,301.05,161.145 M396.63,253.546c-0.292-3.175-0.046-6.118-0.656-9.11   c-0.919-4.513-1.243-9.054-3.929-13.121c-2.124-3.218-4.564-6.125-7.308-8.716c-2.111-1.993-4.835-3.328-7.245-5.015   c-2.303-1.611-4.868-2.742-7.279-4.135c-2.26-1.306-4.588-2.576-6.926-3.587c-3.238-1.4-6.525-2.846-10.001-3.693   c-0.91-0.222-1.977-0.372-2.638-0.942c-2.563-2.207-5.974-2.136-8.856-3.495c-2.511-1.184-5.372-1.5-8.058-2.235   c-4.205-1.151-8.602-1.636-12.912-2.438c-3.052-0.568-6.226-0.383-9.349-0.222c-0.877,0.045-1.792,0.04-2.617,0.295   c-4.11,1.272-7.94,2.999-11.512,5.552c-3.89,2.781-8.02,5.219-11.783,8.219c-1.197,0.954-1.931,2.43-3.329,3.018   c-1.745,0.734-3.103,2.091-4.083,3.413c-2.505,3.381-5.272,6.561-7.54,10.147c-3.286,5.194-5.278,10.886-7.083,16.647   c-1.015,3.238-1.308,6.685-1.54,10.102c-0.47,6.921,0.45,13.75,1.164,20.603c0.344,3.312,0.829,6.616,1.364,9.882   c0.851,5.19,3.513,9.754,5.792,14.467c2.172,4.49,5.288,8.29,7.837,12.487c0.501,0.826,1.149,1.595,1.852,2.261   c4.098,3.882,8.714,7.109,13.558,9.94c3.742,2.187,7.845,3.729,11.91,5.256c3.072,1.153,6.344,1.792,9.538,2.317   c7.621,1.254,15.261,1.288,22.921-0.454c5.828-1.326,11.423-3.107,16.812-5.664c2.533-1.202,4.933-2.633,7.269-4.131   c3.253-2.085,6.28-4.502,9.162-7.106c2.831-2.559,5.5-5.27,7.875-8.229c2.596-3.236,4.892-6.696,7.067-10.251   c3.2-5.231,5.537-10.846,7.181-16.663C395.643,270.612,396.201,261.964,396.63,253.546 M445.166,294.074   c-0.071,3.066,0.025,6.128,0.369,9.173c0.348,3.067,0.913,6.069,1.791,9.067c1.687,5.76,3.336,11.518,6.181,16.823   c1.53,2.856,3.187,5.7,5.184,8.237c2.353,2.988,5.466,5.317,8.569,7.46c3.643,2.515,7.348,5.049,11.587,6.573   c0.659,0.237,1.374,0.375,1.97,0.72c3.466,2.003,7.414,2.4,11.202,3.075c4.017,0.715,8.11,0.361,12.169-0.628   c4.8-1.17,9.336-2.803,13.492-5.502c1.406-0.912,2.778-1.876,4.175-2.776c1.88-1.212,3.411-2.779,5.064-4.208   c1.382-1.195,2.555-2.661,3.841-3.965c2.606-2.643,4.981-5.482,6.982-8.554c2.645-4.059,4.504-8.637,5.52-13.312   c3.268-15.051,3.877-30.142-0.802-45.095c-0.801-2.556-1.752-5.018-2.89-7.469c-1.909-4.115-4.974-7.245-7.846-10.542   c-2.417-2.776-4.61-5.736-7.3-8.309c-1.73-1.656-3.639-2.815-5.713-3.768c-2.974-1.365-6.295-1.598-9.444-1.86   c-5.465-0.456-10.976-0.769-16.488,0.303c-4.294,0.834-8.693,1.036-12.83,2.718c-2.523,1.026-5.176,1.686-7.707,2.781   c-3.461,1.498-6.813,3.089-10.087,4.999c-4.453,2.597-7.328,6.393-9.753,10.707c-1.073,1.907-1.418,4.109-2.323,6.066   c-1.675,3.623-2.649,7.488-3.5,11.304C445.418,283.307,445.268,288.712,445.166,294.074"/>	<path fill="#121C5C" d="M609.162,555.794c1.221,0.215,2.262,0.364,3.287,0.584c2.981,0.637,5.378,2.189,7.502,4.392   c6.699,6.945,7.707,15.128,5.594,24.097c-1.304,5.534-4.139,10.036-8.49,13.709c-3.906,3.297-8.262,5.174-13.354,5.899   c-11.788,1.68-23.605,0.977-35.421,0.914c-3.183-0.017-3.181-0.056-3.179-3.166c0-1.414,0.089-2.836-0.037-4.239   c-0.12-1.338,0.318-1.725,1.657-1.709c5.185,0.058,10.371-0.003,15.557-0.009c5.186-0.007,10.374-0.092,15.557,0.023   c4.362,0.098,8.202-1.323,11.537-3.913c1.565-1.217,2.833-2.969,3.854-4.702c3.242-5.512,4.252-11.519,2.396-17.636   c-1.176-3.878-3.38-7.218-7.326-9.271c-2.607-1.358-5.148-2.683-8.015-3.378c-0.63-0.153-1.239-0.337-1.886-0.339   c-17.267-0.054-34.532-0.427-51.797,0.004c-1.914,0.048-1.971,0.142-1.236,1.894c2.099,5.008,3.976,10.102,5.924,15.168   c1.75,4.555,3.574,9.083,5.321,13.642c1.074,2.802,1.042,2.986-1.658,4.182c-0.909,0.403-1.962,0.518-2.813,1.002   c-1.752,0.993-2.665,0.094-3.391-1.308c-0.457-0.883-0.831-1.813-1.189-2.742c-1.431-3.7-2.819-7.416-4.2-11.133   c-1.965-5.289-4.037-10.535-5.754-15.915c-0.392-1.224-0.995-2.377-1.494-3.565c-0.415-0.99-1.132-1.296-2.212-1.304   c-5.716-0.038-11.432-0.149-17.146-0.265c-0.521-0.012-1.422,0.328-1.464-0.485c-0.048-0.934,0.927-0.734,1.504-0.74   c5.305-0.058,10.607-0.07,15.911-0.104c2.057-0.014,2.053-0.065,1.164-1.844c-0.362-0.726-0.498-1.564-0.736-2.352   c-1.3-4.308-3.072-8.451-4.621-12.665c-1.335-3.634-2.469-7.367-4.135-10.883c-0.17-0.36-0.251-0.899-0.697-0.951   c-0.658-0.076-0.605,0.604-0.771,0.989c-2.168,5.034-4.233,10.113-6.332,15.177c-2.057,4.959-4.307,9.831-6.274,14.84   c-1.819,4.638-3.785,9.232-5.676,13.852c-2.11,5.159-4.144,10.355-6.335,15.471c-1.317,3.077-2.104,6.415-4.009,9.259   c-0.435,0.65-0.589,1.541-0.699,2.345c-0.15,1.102,0.042,2.263,1.224,2.665c1.927,0.657,3.736,1.788,5.892,1.655   c0.233-0.014,0.475,0.001,0.703,0.049c0.813,0.171,0.919,0.824,0.954,1.49c0.046,0.873-0.573,0.882-1.194,0.883   c-3.948,0.005-7.896-0.032-11.844,0.04c-2.028,0.036-4.079-0.082-5.824,1.474c-0.786,0.7-2.014,0.841-2.832-0.366   c-0.855-1.265-2.213-1.121-3.496-1.214c-0.57-0.043-1.386,0.332-1.519-0.701c-0.116-0.902,0.209-1.544,1.153-1.645   c1.536-0.161,1.202-0.933,0.64-1.792c-2.663-4.069-5.207-8.226-8.052-12.166c-1.579-2.189-3.148-4.405-4.739-6.588   c-1.494-2.05-2.932-4.172-4.392-6.259c-2.082-2.975-3.894-6.234-6.669-8.6c-2.53-2.159-5.644-3.12-9.101-3.053   c-4.877,0.097-4.882-0.014-4.887,4.746c-0.01,8.896-0.02,17.789-0.021,26.685c-0.001,5.253,1.226,5.435,6.128,6.919   c1.053,0.318,2.227,0.223,3.324,0.427c0.479,0.089,1.063,0.339,1.009,1.021c-0.049,0.614-0.498,0.925-1.058,1.022   c-0.46,0.081-0.937,0.104-1.406,0.104c-8.957-0.007-17.914-0.021-26.872-0.033c-0.118-0.001-0.235-0.009-0.353,0.001   c-0.856,0.063-1.575-0.108-1.574-1.153c0-0.997,0.769-0.993,1.499-1.073c1.716-0.188,3.369-0.237,5.095-0.951   c3.238-1.339,3.782-4.043,4.035-6.788c0.318-3.447,0.126-6.943,0.159-10.419c0.08-8.657,0.206-17.315-0.03-25.975   c-0.04-1.448-0.336-2.043-1.97-2.026c-8.544,0.088-17.089,0.039-25.634,0.043c-1.966,0.001-1.931,0.045-1.338,1.854   c1.096,3.34,2.513,6.559,3.74,9.844c2.019,5.4,4.136,10.767,6.148,16.172c0.581,1.56,1.362,3.062,1.889,4.661   c0.184,0.557,0.338,1.034-0.348,1.313c-2.049,0.829-4.1,1.656-6.156,2.468c-0.961,0.378-1.448-0.147-1.684-0.994   c-1.239-4.454-3.184-8.654-4.751-12.988c-1.999-5.523-4.252-10.955-6.249-16.485c-0.539-1.493-1.22-2.986-1.772-4.5   c-0.37-1.017-0.882-1.409-2.034-1.399c-5.775,0.05-11.55-0.001-17.325-0.054c-0.561-0.005-1.535,0.395-1.578-0.552   c-0.043-0.963,0.912-0.88,1.613-0.884c5.363-0.024,10.725-0.073,16.088-0.044c1.379,0.009,1.668-0.259,1.263-1.711   c-1.272-4.564-3.326-8.831-4.946-13.258c-1.099-3.003-1.731-6.184-3.177-9.033c-0.802-1.579-1.219-3.347-2.269-4.897   c-1.865,1.934-2.024,4.518-3.147,6.643c-1.674,3.171-2.525,6.682-4.202,9.863c-0.977,1.853-1.463,3.959-2.289,5.899   c-2.063,4.849-4.003,9.747-6.048,14.598c-2.094,4.966-4.116,9.961-6.197,14.932c-1.969,4.7-3.985,9.377-5.856,14.12   c-0.77,1.95-1.518,3.861-1.99,5.904c-0.397,1.719,0.072,2.654,1.872,3.024c1.481,0.306,2.913,0.853,4.36,1.313   c0.388,0.123,0.741,0.35,1.126,0.483c0.737,0.257,1.028,0.81,0.887,1.51c-0.15,0.741-0.838,0.5-1.319,0.507   c-4.831,0.07-9.663,0.243-14.494-0.003c-0.818-0.042-1.631-0.192-2.297,0.544c-0.259,0.286-0.769,0.479-1.141,0.255   c-1.824-1.103-3.878-0.849-5.851-1.048c-0.774-0.078-1.483-0.296-1.487-1.131c-0.004-0.858,0.719-1.102,1.501-1.153   c0.642-0.043,1.43-0.064,1.61-0.81c0.204-0.842-0.763-0.836-1.166-1.252c-2.784-2.868-5.513-5.791-8.292-8.663   c-2.359-2.44-4.655-4.937-7.071-7.324c-2.678-2.649-5.123-5.531-7.697-8.287c-1.405-1.506-3.035-2.834-4.255-4.472   c-1.293-1.738-3.009-3.028-4.36-4.706c-1.729-2.148-3.801-4.023-5.749-5.993c-1.536-1.553-3.115-3.062-4.659-4.606   c-0.873-0.872-0.821-1.634,0.13-2.522c1.636-1.528,3.18-3.161,4.705-4.804c0.948-1.021,2.067-1.877,3.098-2.765   c2.584-2.228,4.975-4.68,7.369-7.061c2.803-2.788,5.763-5.438,8.482-8.326c1.159-1.23,2.335-2.52,3.637-3.664   c1.628-1.432,2.488-3.505,3.433-5.429c0.414-0.845,0.139-1.753-0.879-2.368c-1.291-0.781-2.673-0.868-4.081-0.883   c-0.907-0.01-1.552-0.297-1.577-1.237c-0.026-0.945,0.579-1.265,1.507-1.262c8.309,0.015,16.619,0.001,24.928-0.006   c0.6,0,1.249-0.06,1.203,0.851c-0.039,0.764,0.017,1.512-1.106,1.642c-3.104,0.358-5.803,1.737-8.449,3.334   c-1.564,0.944-2.706,2.336-4.139,3.418c-1.958,1.481-3.764,3.206-5.626,4.836c-2.421,2.12-4.564,4.57-7.062,6.587   c-1.673,1.352-3.234,2.855-4.749,4.314c-2.742,2.641-5.622,5.171-8.152,8.039c-0.453,0.513-0.974,0.965-1.45,1.458   c-2.133,2.207-2.043,2.848,0.202,4.912c3.286,3.021,6.161,6.444,9.175,9.73c0.935,1.021,1.951,1.972,2.942,2.91   c4.321,4.094,8.12,8.661,12.204,12.961c2.291,2.41,4.524,4.912,6.958,7.218c2.117,2.005,4.09,4.211,6.127,6.327   c0.722,0.749,1.085,0.961,1.708-0.239c1.658-3.192,2.724-6.624,4.172-9.899c1.627-3.68,3.063-7.473,4.723-11.143   c1.452-3.21,2.29-6.675,4.134-9.714c0.357-0.588,0.485-1.311,0.738-1.964c1.365-3.523,2.882-6.987,4.311-10.485   c2.058-5.038,4.183-10.052,6.272-15.078c1.886-4.538,3.789-9.077,5.744-13.587c1.581-3.647,3.004-7.368,4.709-10.966   c0.273-0.574,0.513-0.956,1.229-1.045c3.887-0.475,4.379-0.17,5.733,3.392c2.021,5.314,4.047,10.626,5.878,16.011   c1.086,3.192,2.283,6.354,3.498,9.491c1.046,2.703,1.832,5.524,3.088,8.116c0.941,1.94,1.658,3.963,2.584,5.898   c0.57,1.192,1.359,1.805,2.846,1.799c16.442-0.052,32.884-0.009,49.325-0.03c3.806-0.005,7.521-0.927,10.852-2.591   c4.355-2.179,6.065-6.277,6.375-11.005c0.243-3.688-0.068-7.331-1.6-10.711c-0.754-1.665-2.147-2.979-3.634-4.122   c-3.33-2.56-7.225-3.1-11.253-3.265c-6.482-0.266-12.964-0.062-19.442,0.068c-1.78,0.034-2.282-0.556-2.105-2.208   c0.131-1.226,0.141-2.478,0.058-3.706c-0.084-1.239,0.353-1.61,1.594-1.602c7.425,0.055,14.85,0.015,22.275,0.045   c1.469,0.007,2.94,0.134,4.403,0.283c4.549,0.467,8.438,2.452,11.965,5.258c3.165,2.518,5.308,5.67,6.973,9.406   c2.197,4.927,2.152,9.801,0.711,14.709c-1.085,3.695-3.116,7.086-5.931,9.711c-2.85,2.658-6.12,4.871-10.124,5.633   c-0.463,0.089-1.266,0.062-1.31,0.656c-0.042,0.56,0.564,1.032,1.113,1.165c2.576,0.625,3.412,3.021,4.849,4.76   c1.906,2.308,3.432,4.905,5.268,7.282c1.191,1.543,2.226,3.222,3.389,4.807c3.153,4.301,6.16,8.708,9.315,13.008   c0.534,0.728,0.466,2.324,1.793,2.031c0.945-0.208,0.781-1.562,1.134-2.389c2.141-5.033,4.356-10.04,6.295-15.151   c1.283-3.388,2.77-6.689,4.164-10.021c2.082-4.979,4.07-9.996,6.178-14.962c1.979-4.658,3.857-9.356,5.847-14.003   c2.128-4.967,4.066-10.008,6.215-14.96c1.688-3.896,3.22-7.855,4.917-11.746c0.339-0.778,0.76-1.125,1.584-1.053   c0.469,0.041,0.951,0.086,1.411,0.018c2.128-0.317,3.023,0.496,3.85,2.633c2.035,5.266,4.011,10.555,6.095,15.8   c2.021,5.089,3.924,10.224,5.99,15.284c1.363,3.341,2.377,6.84,4.103,10.043c0.37,0.687,0.732,0.903,1.472,0.903   c17.325-0.017,34.653,0.169,51.975-0.123c5.035-0.085,9.535-2.446,12.455-6.948c0.373-0.576,0.6-1.279,0.762-1.955   c1.06-4.432,1.204-8.893-0.219-13.252c-1.025-3.14-3.369-5.168-6.333-6.586c-5.483-2.622-11.329-2.086-17.116-2.122   c-1.268-0.008-0.939,0.963-0.945,1.661c-0.057,7.421-0.16,14.844-0.087,22.265c0.019,1.746-0.574,2.094-2.114,2.003   c-2.115-0.123-4.243-0.119-6.362-0.067c-1.22,0.029-1.617-0.445-1.67-1.638c-0.253-5.716-0.111-11.425,0.04-17.137   c0.063-2.41,0.126-4.813-0.307-7.219c-0.503-2.789-2.515-3.929-4.861-4.639c-1.221-0.369-2.557-0.423-3.848-0.477   c-0.987-0.042-1.52-0.21-1.459-1.395c0.059-1.128,0.404-1.502,1.572-1.498c10.784,0.036,21.569,0.011,32.354,0.007   c2.244-0.001,4.466,0.181,6.672,0.644c3.188,0.668,5.858,2.252,8.48,4.145c4.092,2.955,5.7,6.982,6.612,11.783   c0.98,5.159-0.142,9.894-2.131,14.36c-1.324,2.976-3.636,5.637-7.051,6.83C610.706,554.416,609.689,554.549,609.162,555.794"/>	<path fill="#D90709" d="M347.268,155.692c1.737-1.458,3.78-1.469,5.794-1.583c8.114-0.456,16.26-0.613,24.335-1.45   c8.901-0.922,17.837-1.279,26.732-2.149c9.776-0.957,19.559-1.67,29.374-1.971c4.993-0.154,9.864-0.095,14.515,2.325   c2.76,1.436,5.804,2.383,8.728,3.524c6.848,2.672,13.64,5.484,20.506,8.12c4.364,1.676,8.69,3.477,13.038,5.21   c4.639,1.849,9.273,3.698,13.937,5.487c4.118,1.58,8.214,3.261,12.279,4.975c2.259,0.952,4.552,1.752,6.836,2.6   c0.449,0.167,0.991,0.316,0.919,0.9c-0.082,0.668-0.724,0.408-1.118,0.456c-3.039,0.372-6.115,0.531-9.118,1.087   c-7.749,1.434-15.612,1.976-23.382,3.178c-2.479,0.383-4.965,0.809-7.454,1.157c-0.737,0.103-0.934,0.389-1.039,1.095   c-0.596,3.951-1.28,7.888-1.889,11.836c-0.151,0.988-0.733,1.338-1.578,1.196c-4.909-0.82-9.882-1.117-14.771-2.211   c-4.465-0.997-9.137-1.042-13.626-1.954c-6.292-1.279-12.72-1.577-18.983-2.86c-5.418-1.109-10.953-1.357-16.334-2.506   c-6.164-1.316-12.473-1.57-18.614-2.833c-3.283-0.676-6.573-1.1-9.877-1.497c-1.848-0.222-1.764-1.473-1.62-2.718   c0.378-3.274,0.771-6.549,1.296-9.802c0.222-1.378-0.218-2.089-1.469-2.53c-5.487-1.935-10.577-4.778-15.925-7.046   c-3.734-1.584-7.404-3.394-11.096-5.116C354.215,159.004,350.787,157.359,347.268,155.692"/>	<path fill="#D91B17" d="M525.189,618.589c-32.645,0-65.291,0.006-97.936-0.001c-52.681-0.013-105.36-0.031-158.041-0.048   c-2.39-0.001-3.208-1.125-2.563-3.422c0.209-0.744,0.795-0.644,1.261-0.667c2.059-0.097,4.121-0.176,6.182-0.173   c26.104,0.033,52.208,0.116,78.312,0.121c65.408,0.014,130.817,0.014,196.226-0.017c51.855-0.025,103.709-0.149,155.564-0.144   c25.22,0.003,50.438,0.202,75.658,0.314c0.412,0.001,0.825,0.012,1.237,0.021c2.275,0.059,2.994,1.174,2.208,3.328   c-0.175,0.481-0.466,0.648-0.896,0.675c-0.528,0.033-1.061,0.025-1.591,0.025c-85.207,0.001-170.415,0.001-255.623,0.001V618.589z"/>	<path fill="#131D5C" d="M642.667,546.771c0-6.771-0.043-13.543,0.023-20.314c0.022-2.387-1.183-4.237-2.351-6.092   c-0.635-1.01-1.961-0.98-3.05-1.142c-1.338-0.199-2.692-0.318-4.045-0.373c-1.035-0.042-1.059-0.686-1.088-1.437   c-0.036-0.913,0.496-1.053,1.242-1.052c9.131,0.017,18.263,0.021,27.394,0.023c0.609,0.001,1.284-0.062,1.161,0.852   c-0.093,0.697,0.114,1.611-1.088,1.659c-1.351,0.054-2.713,0.118-4.045,0.331c-2.534,0.407-4.311,1.59-4.457,4.378   c-0.772,14.754-1.824,29.526,0.738,44.219c0.542,3.107,1.643,6.141,3.266,8.811c0.886,1.457,2.179,2.817,4.021,3.666   c6.81,3.135,13.806,3.148,20.807,1.338c3.095-0.801,5.673-2.796,7.605-5.659c3.777-5.598,3.771-11.931,4.003-18.229   c0.059-1.614,0.447-2.118,2.074-2.108c11.018,0.064,22.034,0.061,33.051,0.024c1.23-0.003,1.6,0.343,1.594,1.595   c-0.052,10.363-0.051,20.729-0.015,31.093c0.005,1.154-0.326,1.529-1.495,1.518c-5.715-0.052-11.43-0.02-17.144-0.037   c-0.59-0.002-1.39,0.25-1.44-0.796c-0.054-1.091,0.781-1.002,1.456-1.082c1.519-0.179,3.055-0.252,4.56-0.506   c2.032-0.342,3.02-1.701,3.423-3.673c0.789-3.854,0.412-7.748,0.479-11.623c0.078-4.474-0.04-8.951,0.022-13.425   c0.021-1.402-0.442-1.773-1.825-1.741c-4.417,0.104-8.838,0.126-13.254,0.03c-1.47-0.032-1.793,0.502-1.773,1.813   c0.07,4.839-0.591,9.603-1.803,14.275c-0.912,3.529-2.892,6.488-5.15,9.323c-1.246,1.564-2.844,2.694-4.207,4.098   c-0.277,0.287-0.648,0.521-1.02,0.673c-9.925,4.07-20.146,4.915-30.53,2.32c-4.326-1.08-7.847-3.78-10.913-7.056   c-1.173-1.254-1.938-2.647-2.741-4.137c-3.115-5.77-3.132-12.067-3.389-18.312c-0.182-4.409-0.035-8.831-0.035-13.247H642.667z"/>	<path fill="#131E5D" d="M342.955,643.399c0,2.507,0.023,5.013-0.004,7.52c-0.118,10.952-0.318,21.903-0.313,32.855   c0.001,1.956-0.884,2.612-2.408,2.878c-0.907,0.157-1.896,0.095-2.807-0.082c-1.159-0.226-1.777-0.819-1.764-2.274   c0.155-16.604,0.231-33.209,0.273-49.813c0.004-1.507,0.395-2.23,1.999-2.024c0.696,0.09,1.454,0.171,2.112-0.009   c3.436-0.939,4.784,1.426,6.242,3.756c1.524,2.434,3.155,4.802,4.716,7.214c0.345,0.535,0.571,1.146,0.886,1.702   c2.447,4.333,5.209,8.48,7.84,12.695c2.852,4.567,5.704,9.146,8.646,13.658c1.046,1.604,2.051,3.204,2.94,4.892   c0.176,0.332,0.309,0.917,0.793,0.81c0.651-0.143,0.405-0.795,0.35-1.192c-0.842-6.079-0.737-12.196-0.724-18.307   c0.017-7.654,0.14-15.309,0.123-22.964c-0.003-1.662,0.466-2.299,2.208-2.266c4.665,0.087,4.667,0.021,4.666,4.697   c-0.007,15.723-0.014,31.445-0.021,47.168c-0.001,2.24-0.001,2.241-2.283,2.094c-1.583-0.104-3.165-0.223-4.749-0.308   c-0.545-0.028-1.12-0.019-1.383-0.575c-0.824-1.742-2.162-3.146-3.226-4.718c-2.272-3.354-3.928-7.083-6.348-10.317   c-3.24-4.333-5.868-9.04-8.73-13.607c-2.152-3.432-4.246-6.894-6.343-10.356c-0.644-1.064-1.364-2.228-2.187-3.24   C343.291,643.323,343.123,643.361,342.955,643.399"/>	<path fill="#121C5C" d="M771.045,516.406c4.066,0,8.132-0.009,12.198,0.01c0.582,0.003,1.435-0.276,1.412,0.794   c-0.018,0.823-0.002,1.692-1.23,1.731c-3.719,0.12-6.849,1.971-9.782,3.899c-1.554,1.021-2.903,2.59-4.254,4.02   c-2.354,2.495-4.932,4.784-7.463,7.107c-3.837,3.523-7.681,7.022-11.329,10.761c-2.229,2.283-4.421,4.695-7.011,6.65   c-1.609,1.213-1.457,2.54,0.304,4.106c1.812,1.61,3.333,3.503,5.022,5.221c2.582,2.627,5.089,5.323,7.599,8.014   c1.538,1.649,3.05,3.357,4.632,4.93c1.344,1.333,2.687,2.732,3.941,4.112c2.63,2.896,5.456,5.604,8.024,8.556   c1.272,1.465,2.649,2.848,4.064,4.178c1.139,1.07,2.091,2.325,3.15,3.448c1.509,1.6,3.457,2.712,4.742,4.549   c0.715,1.022,0.729,1.692,0.108,2.817c-0.957,1.737-2.673,2.716-3.741,4.306c-0.69,1.028-1.468,0.712-2.148-0.101   c-2.978-3.552-6.299-6.779-9.501-10.119c-2.27-2.366-4.432-4.833-6.695-7.206c-2.497-2.618-5.078-5.155-7.577-7.771   c-3.304-3.46-6.512-7.013-9.857-10.431c-2.819-2.879-5.538-5.854-8.383-8.711c-1.526-1.533-3.355-2.857-4.457-4.844   c-0.45-0.813-0.489-1.396,0.092-2.047c1.772-1.983,3.781-3.735,5.624-5.644c1.525-1.58,3.228-2.974,4.76-4.55   c1.215-1.25,2.295-2.723,3.835-3.724c1.399-0.909,2.368-2.373,3.557-3.553c2.999-2.978,5.957-6.006,8.937-9.011   c1.584-1.598,3.258-3.16,3.984-5.404c0.518-1.603-0.002-2.622-1.654-3.027c-1.081-0.267-2.196-0.518-3.299-0.532   c-1.169-0.017-1.325-0.57-1.351-1.534c-0.027-1.094,0.616-1.062,1.372-1.059c4.125,0.012,8.25,0.006,12.375,0.006V516.406z"/>	<path fill="#131D5C" d="M497.47,659.239c0-8.362,0.028-16.726-0.028-25.087c-0.008-1.292,0.31-1.734,1.655-1.73   c5.301,0.016,10.6-0.349,15.9,0.038c5.33,0.389,9.345,2.794,12.421,7.233c2.97,4.289,2.453,8.686,0.941,13.075   c-0.838,2.434-2.546,4.589-5.033,5.715c-1.604,0.728-2.954,1.797-4.439,2.68c-0.699,0.416-0.594,0.722-0.001,1.137   c2.348,1.644,4.009,3.777,5.513,6.276c2.38,3.952,4.582,8.024,7.189,11.849c1.07,1.568,1.55,3.507,2.814,4.995   c0.197,0.232,0.214,0.506,0.014,0.805c-0.256,0.384-0.629,0.394-0.932,0.251c-0.995-0.465-2.073-0.46-3.113-0.562   c-2.97-0.291-4.48-2.506-5.641-4.7c-1.741-3.291-3.825-6.329-5.864-9.414c-0.513-0.775-0.876-1.648-1.319-2.47   c-2.534-4.695-6.612-6.256-11.717-5.856c-1.302,0.103-1.846,0.508-1.831,1.919c0.068,6.3-0.01,12.603,0.058,18.903   c0.019,1.7-0.603,2.263-2.274,2.217c-4.521-0.124-4.517-0.073-4.514-4.484c0.004-7.597,0.001-15.193,0.001-22.789H497.47z    M503.518,647.869h-0.021c0,2.821-0.008,5.644,0.006,8.465c0.003,0.67-0.176,1.415,0.908,1.554   c3.771,0.484,7.438,0.647,11.196-0.601c4.44-1.476,6.628-4.729,7.192-8.855c0.722-5.273-2.312-8.521-7.183-9.962   c-3.648-1.078-7.412-0.807-11.156-0.413c-0.938,0.099-0.949,0.658-0.947,1.347C503.523,642.225,503.518,645.047,503.518,647.869"/>	<path fill="#131E5D" d="M316.318,651.179c0-5.655,0.031-11.312-0.024-16.966c-0.012-1.23,0.196-1.778,1.619-1.769   c4.896,0.035,4.885-0.021,4.899,4.908c0.029,9.542,0.027,19.085,0.127,28.627c0.055,5.237-1.517,9.955-4.311,14.283   c-1.737,2.688-4.075,4.533-7.257,5.649c-4.74,1.662-9.503,1.697-14.237,0.843c-5.064-0.912-9.107-3.462-11.683-8.328   c-1.761-3.328-2.21-6.821-2.351-10.314c-0.45-11.183-0.307-22.378-0.072-33.57c0.036-1.707,0.627-2.158,2.284-2.102   c4.245,0.144,4.37,0.065,4.38,4.336c0.02,8.54-0.133,17.081-0.162,25.621c-0.01,2.886,0.207,5.767,0.592,8.632   c0.66,4.912,3.37,7.88,8.043,9.699c5.563,2.167,10.104,0.324,14.371-2.797c2.134-1.562,2.984-4.231,3.314-6.809   C316.701,664.502,316.205,657.828,316.318,651.179"/>	<path fill="#15205E" d="M458.764,659.268c0-8.364,0.03-16.728-0.03-25.091c-0.01-1.344,0.455-1.721,1.71-1.715   c8.072,0.034,16.146,0.037,24.218,0.01c1.234-0.004,1.739,0.292,1.685,1.688c-0.16,4.052-0.091,4.063-4.108,4.108   c-4.949,0.057-9.898,0.154-14.847,0.107c-1.511-0.014-1.859,0.473-1.824,1.917c0.112,4.709,0.148,9.424,0.05,14.134   c-0.03,1.511,0.513,1.729,1.821,1.725c5.185-0.014,10.37,0.118,15.555,0.1c1.301-0.005,1.729,0.339,1.729,1.682   c0,3.996,0.059,4.053-3.935,4.059c-4.419,0.005-8.838-0.075-13.255-0.188c-1.529-0.038-2.149,0.365-2.098,2.083   c0.147,4.943,0.129,9.894,0.058,14.841c-0.021,1.423,0.297,1.902,1.818,1.884c6.068-0.074,12.138,0.037,18.207-0.008   c1.309-0.01,1.73,0.378,1.752,1.689c0.065,4.215,0.112,4.22-4.099,4.209c-7.307-0.02-14.612-0.046-21.918-0.072   c-2.435-0.009-2.512-0.087-2.512-2.424c0.001-8.246,0-16.492,0-24.738H458.764z"/>	<path fill="#131D5C" d="M428.39,678.207c1.44-1.359,1.367-3.129,1.695-4.673c1.052-4.945,3.022-9.588,4.645-14.332   c1.775-5.188,3.699-10.344,5.724-15.44c1.378-3.472,2.341-7.094,3.94-10.478c0.269-0.566,0.571-0.819,1.184-0.811   c1.473,0.019,2.947,0.048,4.418-0.015c0.997-0.041,1.175,0.369,1.081,1.272c-0.225,2.14-1.318,3.956-2.09,5.886   c-1.758,4.39-3.237,8.86-4.617,13.388c-1.625,5.332-3.625,10.571-5.805,15.704c-1.118,2.634-1.784,5.436-3.047,7.965   c-1.267,2.54-1.998,5.209-2.796,7.883c-0.174,0.583-0.508,1.031-0.992,1.385c-0.752,0.548-5.707,0.71-6.537,0.29   c-0.574-0.29-0.624-0.803-0.794-1.293c-1.167-3.371-2.085-6.858-3.576-10.079c-1.675-3.617-2.601-7.479-4.209-11.118   c-1.961-4.437-3.219-9.178-5.01-13.696c-1.605-4.051-2.681-8.276-4.337-12.303c-0.154-0.377-0.284-0.777-0.343-1.178   c-0.193-1.31-1.43-3.261-0.577-3.749c1.604-0.919,3.771-0.33,5.7-0.262c0.613,0.021,0.592,0.769,0.797,1.241   c1.738,4.004,2.653,8.305,4.471,12.287c0.7,1.534,0.988,3.25,1.549,4.854c2.306,6.607,4.631,13.211,6.979,19.801   C426.711,673.17,427.081,675.813,428.39,678.207"/>	<path fill="#131E5D" d="M553.244,687.296c-4.218,0.223-8.547-1.061-12.879-2.36c-0.775-0.231-1.008-0.637-0.981-1.396   c0.062-1.706,0.092-3.414,0.069-5.121c-0.015-1.246,0.448-1.458,1.49-0.877c2.984,1.665,6.202,2.586,9.56,3.202   c3.447,0.632,6.802,0.906,10.211-0.242c2.375-0.8,4.128-2.69,4.531-5.205c0.658-4.111-1.003-7.023-4.349-9.322   c-2.939-2.019-6.201-3.339-9.342-4.939c-3.527-1.799-7.204-3.57-9.549-6.983c-3.669-5.341-3.701-10.296,0.055-15.628   c1.068-1.517,2.689-2.724,4.496-3.714c6.592-3.615,13.479-3.412,20.513-2.145c2.479,0.447,2.559,0.672,2.653,3.271   c0.043,1.168,0.188,2.334,0.347,3.493c0.199,1.463-0.38,1.811-1.529,1.004c-3.563-2.503-7.61-2.74-11.757-2.739   c-3.181,0.001-6,0.886-8.338,3.042c-2.565,2.365-2.378,8.502,0.568,10.709c3.346,2.507,6.963,4.501,10.509,6.611   c2.293,1.364,4.544,2.797,6.828,4.175c6.089,3.675,6.795,9.535,5.185,15.253c-1.188,4.219-4.036,6.858-8.257,8.29   C560.108,686.748,556.95,687.39,553.244,687.296"/>	<path fill="#131D5C" d="M697.905,631.925c2.229,0.051,4.454,0.085,6.686,0.372c2.299,0.295,3.05,1.893,3.492,3.614   c0.323,1.261,0.063,2.693-0.06,4.037c-0.072,0.788-0.543,1.173-1.332,0.579c-4.215-3.173-9.037-3.267-13.928-2.546   c-3.063,0.452-5.789,1.772-7.42,4.605c-1.83,3.179-0.789,6.689,2.151,8.926c2.795,2.125,6.032,3.377,9,5.139   c4.229,2.514,8.413,5.132,11.61,8.993c3.175,3.833,2.82,11.077-0.026,15.013c-2.333,3.226-5.28,4.591-8.927,5.58   c-4.962,1.345-9.886,1.247-14.806,0.437c-1.945-0.321-3.97-0.878-5.802-1.852c-0.729-0.387-1.023-0.776-0.988-1.596   c0.067-1.588,0.073-3.181,0.02-4.77c-0.044-1.293,0.516-1.334,1.517-0.946c2.161,0.833,4.074,2.219,6.384,2.735   c1.641,0.368,3.219,1.011,4.858,1.389c3.553,0.819,6.841-0.538,9.776-2.065c3.643-1.893,4.342-5.848,2.623-9.382   c-0.58-1.193-1.688-2.193-2.723-3.088c-2.901-2.51-6.173-4.49-9.53-6.329c-2.774-1.521-5.515-3.105-8.321-4.565   c-1.336-0.694-2.172-1.796-2.687-3.07c-0.738-1.83-1.515-3.724-1.763-5.654c-0.515-4.008,0.755-7.422,3.737-10.356   c3.497-3.439,7.702-4.826,12.396-5.184C695.19,631.838,696.552,631.925,697.905,631.925"/>	<path fill="#121C5C" d="M641.888,670.04c0-4.71-0.215-9.431,0.05-14.126c0.408-7.232,0.132-14.462,0.246-21.69   c0.019-1.202,0.327-1.637,1.589-1.632c8.01,0.025,16.021,0.001,24.03-0.067c1.308-0.011,1.706,0.414,1.704,1.723   c-0.009,3.804,0.05,3.896-3.719,3.935c-5.182,0.054-10.365-0.003-15.546-0.113c-1.483-0.031-1.895,0.447-1.874,1.913   c0.071,4.885,0.046,9.772-0.057,14.658c-0.027,1.265,0.337,1.623,1.561,1.617c5.302-0.023,10.603,0.084,15.902,0.027   c1.426-0.015,1.796,0.446,1.813,1.813c0.045,3.735,0.106,3.729-3.581,3.736c-4.653,0.011-9.308,0.069-13.959,0.022   c-1.287-0.013-1.733,0.333-1.707,1.692c0.1,5.179,0.12,10.361,0.061,15.54c-0.015,1.316,0.466,1.539,1.63,1.531   c6.243-0.04,12.487,0.033,18.73-0.031c1.341-0.014,1.715,0.402,1.715,1.696c-0.001,3.875,0.046,3.874-3.898,3.875   c-7.54,0.002-15.079-0.036-22.617,0.041c-1.682,0.018-2.38-0.306-2.315-2.21c0.155-4.646,0.05-9.3,0.05-13.951   C641.76,670.04,641.823,670.04,641.888,670.04"/>	<path fill="#101B5B" d="M403.049,337.274c-0.212-1.63,1.067-2.605,1.829-3.668c1.821-2.541,3.507-5.167,5.288-7.728   c1.519-2.186,2.583-4.631,4.203-6.748c0.626-0.819,0.956-1.869,1.391-2.826c0.886-1.951,1.769-3.903,2.613-5.872   c0.144-0.334,0.195-0.766,0.624-0.676c0.393,0.083,0.393,0.532,0.411,0.888c0.006,0.118,0.021,0.236,0.016,0.353   c-0.3,6.372,1.344,12.483,3.043,18.481c0.911,3.219,1.628,6.71,3.814,9.513c0.317,0.408,0.273,0.957-0.013,1.478   c-1.749,3.192-3.423,6.426-5.217,9.592c-1.678,2.961-3.498,5.841-5.213,8.782c-1.773,3.042-3.505,6.11-5.231,9.179   c-0.232,0.413-0.369,0.985-0.897,0.956c-0.663-0.036-0.43-0.699-0.547-1.115c-1.712-6.099-2.471-12.401-3.908-18.544   C404.318,345.318,403.825,341.28,403.049,337.274"/>	<path fill="#131E5D" d="M618.877,662.423c0,7.301,0,14.602,0,21.904c0,2.199-0.046,2.245-2.15,2.124   c-4.556-0.262-4.547-0.262-4.557-4.834c-0.028-13.778-0.088-27.556-0.063-41.333c0.004-1.612-0.43-2.123-2.078-2.084   c-3.767,0.088-7.538-0.068-11.309-0.063c-1.031,0.001-1.432-0.251-1.431-1.388c0.005-4.281-0.04-4.281,4.266-4.281   c10.25-0.001,20.5,0.021,30.749-0.032c1.293-0.006,1.74,0.289,1.729,1.652c-0.037,4.146,0.021,4.144-4.155,4.209   c-3.063,0.047-6.128,0.188-9.187,0.112c-1.538-0.038-1.838,0.523-1.825,1.934c0.064,7.36,0.029,14.72,0.029,22.08H618.877z"/>	<path fill="#141E5C" d="M287.36,572.686c0,5.122-0.023,10.243,0.017,15.364c0.009,1.221-0.271,1.736-1.669,1.712   c-5.652-0.102-11.307-0.061-16.96-0.073c-0.353-0.002-0.709,0.011-1.059-0.028c-0.473-0.053-0.922-0.129-0.982-0.773   c-0.068-0.736,0.49-0.733,0.915-0.782c1.344-0.155,2.694-0.268,4.044-0.363c3.748-0.27,5.552-2.368,5.664-6.002   c0.238-7.768,0.22-15.537,0.139-23.309c-0.012-1.203-0.532-1.417-1.622-1.408c-5.712,0.042-11.425,0.004-17.137-0.008   c-0.413,0-0.825,0.016-1.237-0.004c-0.408-0.019-0.911-0.018-0.951-0.553c-0.043-0.586,0.471-0.566,0.879-0.593   c0.235-0.017,0.471-0.004,0.707-0.006c9.187-0.089,18.374-0.145,27.56-0.299c1.415-0.023,1.824,0.353,1.803,1.762   c-0.077,5.12-0.031,10.242-0.031,15.363H287.36z"/>	<path fill="#15205E" d="M391.994,659.417c0-8.416,0.026-16.832-0.028-25.248c-0.008-1.287,0.294-1.724,1.658-1.715   c4.834,0.032,4.837-0.021,4.834,4.882c-0.01,15.714-0.042,31.428,0.003,47.141c0.005,1.671-0.508,2.125-2.143,2.016   c-4.339-0.289-4.343-0.224-4.343-4.652v-22.423H391.994z"/>	<path fill="#101B5B" d="M277.584,533.279c0-5.058,0.057-10.117-0.036-15.174c-0.026-1.455,0.462-1.804,1.812-1.742   c2.232,0.103,4.472,0.07,6.707,0.028c0.99-0.02,1.499,0.178,1.49,1.346c-0.077,10.469-0.113,20.938-0.13,31.408   c-0.001,0.994-0.339,1.35-1.341,1.32c-2.352-0.064-4.708-0.099-7.059-0.029c-1.251,0.037-1.602-0.397-1.586-1.63   c0.064-5.176,0.027-10.352,0.027-15.527C277.506,533.279,277.545,533.279,277.584,533.279"/>	<path fill="#15205E" d="M583.112,659.417c0-8.302,0.032-16.604-0.031-24.905c-0.011-1.396,0.38-1.814,1.78-1.814   c4.27-0.002,4.272-0.06,4.269,4.146c-0.014,15.78-0.048,31.56-0.019,47.338c0.002,1.418-0.304,1.944-1.845,1.9   c-4.238-0.118-4.229-0.044-4.223-4.232c0.009-7.478,0.002-14.955,0.002-22.433H583.112z"/>	<path fill="#141E5C" d="M729.531,533.394c0,5.059-0.034,10.118,0.024,15.177c0.015,1.261-0.26,1.793-1.657,1.711   c-2.229-0.131-4.471-0.064-6.707-0.05c-1.072,0.007-1.532-0.364-1.527-1.544c0.043-10.236,0.038-20.473,0.005-30.708   c-0.003-0.979,0.304-1.421,1.262-1.432c2.53-0.025,5.061-0.033,7.591-0.095c1.287-0.031,1.012,0.874,1.014,1.586   c0.014,5.118,0.008,10.236,0.008,15.354H729.531z"/>	<path fill="#15205E" d="M692.874,533.313c0-5.003,0.065-10.008-0.041-15.01c-0.031-1.484,0.522-1.832,1.817-1.793   c1.884,0.056,3.771,0.063,5.653,0.017c1.237-0.03,1.81,0.371,1.802,1.719c-0.052,10.007-0.063,20.015-0.049,30.021   c0.002,1.367-0.513,1.896-1.89,1.84c-1.822-0.075-3.652-0.053-5.476,0.025c-1.343,0.058-1.862-0.375-1.84-1.81   c0.08-5.002,0.031-10.006,0.031-15.01H692.874z"/>	<path fill="#121C5C" d="M720.646,659.329c0-8.296,0.031-16.591-0.032-24.885c-0.01-1.343,0.381-1.688,1.689-1.673   c4.254,0.048,4.258-0.003,4.254,4.255c-0.017,15.706-0.051,31.413-0.021,47.12c0.002,1.352-0.294,1.859-1.732,1.854   c-4.179-0.018-4.179,0.041-4.179-4.081c0-7.53,0-15.061,0-22.59H720.646z"/>	<path fill="#FE160C" d="M384.804,493.798c-0.158-4.763-0.001-8.597,1.518-12.297c2.111-5.142,7.584-7.936,12.686-5.884   c2.404,0.966,3.98,3.168,5.017,5.722c2.075,5.112,2.044,10.424,1.194,15.633c-0.63,3.865-1.514,7.874-5.359,10.387   c-2.634,1.722-9.485,1.927-12.334-2.166C384.868,501.372,385.202,497.119,384.804,493.798 M388.626,491.544   c-0.087,4.061-0.321,8.38,2.593,12.215c1.239,1.63,2.502,2.205,4.402,2.006c0.914-0.098,1.6-0.433,2.341-0.983   c1.766-1.313,2.497-3.187,2.999-5.151c1.17-4.578,0.736-9.208,0.096-13.804c-0.398-2.858-1.176-5.502-4.032-7.139   c-1.033-0.593-1.974-0.667-2.752-0.32c-2.958,1.32-4.972,3.482-5.212,6.912C388.921,487.267,388.785,489.253,388.626,491.544"/>	<path fill="#FE160C" d="M359.665,492.768c0.46-4.013,0.953-8.038,2.362-11.852c1.766-4.78,8.439-7.492,12.867-5.034   c2.711,1.505,4.207,4.206,4.916,7.275c1.496,6.485,1.434,12.907-0.642,19.272c-1.547,4.74-8.916,7.976-13.188,5.473   c-2.547-1.491-4.373-3.925-4.932-6.978C360.554,498.221,359.522,495.599,359.665,492.768 M377.037,492.126   c-0.111-3.004-0.117-5.816-0.717-8.598c-0.425-1.971-1.399-3.49-3.285-4.17c-1.046-0.376-2.056-1.297-3.228-0.932   c-2.799,0.871-4.585,2.676-5.158,5.696c-0.862,4.541-1.066,9.096-0.395,13.646c0.369,2.505,0.339,5.201,3.113,6.822   c3.36,1.963,6.574,1.101,8.272-2.443C377.212,498.866,376.672,495.354,377.037,492.126"/>	<path fill="#FE160C" d="M346.187,508.012c-2.648,0-5.297-0.046-7.944,0.019c-1.415,0.034-1.913-0.63-1.826-1.918   c0.211-3.151,0.82-6.041,3.525-8.229c2.015-1.629,3.93-3.375,6.07-4.859c2.821-1.958,4.416-4.722,4.946-8.093   c0.565-3.594-2.688-6.77-6.363-6.181c-2.281,0.366-4.332,1.358-6.203,2.689c-0.237,0.168-0.412,0.426-0.708,0.346   c-0.371-0.102-0.291-0.466-0.293-0.744c-0.012-1.821,0.333-3.145,2.289-4.218c2.318-1.272,4.572-1.992,7.139-1.841   c2.906,0.172,4.919,1.606,6.552,4.08c1.406,2.13,1.886,4.302,1.452,6.634c-0.558,2.99-2.021,5.528-4.321,7.655   c-1.924,1.778-4.255,2.978-6.169,4.721c-1.571,1.43-3.222,2.824-3.869,5.018c-0.44,1.491,0.044,2.115,1.551,2.102   c4.002-0.031,8.004-0.051,12.006-0.071c1.086-0.005,1.83,0.312,1.704,1.633c-0.087,0.916-0.413,1.353-1.416,1.334   c-2.706-0.05-5.414-0.018-8.122-0.018C346.187,508.051,346.187,508.031,346.187,508.012"/>	<path fill="#FE160C" d="M419.636,475.637c2.534,0,5.067-0.037,7.601,0.023c0.765,0.017,1.855-0.496,2.244,0.41   c0.443,1.032,0.214,2.321-0.422,3.206c-2.269,3.154-3.652,6.71-5.214,10.225c-1.424,3.205-2.809,6.43-3.984,9.716   c-0.843,2.355-1.04,4.937-1.591,7.402c-0.125,0.563,0.15,1.511-0.746,1.588c-1.088,0.094-2.245,0.35-3.285-0.212   c-0.605-0.327-0.399-0.992-0.22-1.428c1.194-2.89,1.319-6.097,2.607-8.937c1.438-3.168,2.25-6.579,4.107-9.599   c1.391-2.26,2.241-4.843,3.453-7.22c0.726-1.424-0.012-1.424-1.066-1.423c-3.947,0.004-7.898-0.13-11.842,0.005   c-1.825,0.063-1.73-0.854-1.82-2.143c-0.109-1.557,0.606-1.712,1.869-1.679c2.769,0.073,5.538,0.022,8.309,0.022V475.637z"/>	<path fill="#131E5D" d="M682.866,500.241c2.736-0.347,5.212,3.052,5.257,5.43c0.05,2.71-3.016,5.942-5.493,5.979   c-2.656,0.038-5.532-3.553-5.403-6.222C677.344,503.009,679.662,499.952,682.866,500.241"/>	<path fill="#131E5D" d="M668.661,505.57c-0.017,3.169-2.389,6.03-5.31,6.076c-2.507,0.039-5.19-3.194-5.196-6.225   c-0.007-3.159,2.102-5.208,5.313-5.165C666.752,500.301,668.677,502.271,668.661,505.57"/>	<path fill="#182160" d="M310.136,627.688c-2.496-0.086-4.49-1.668-4.331-3.437c0.169-1.864,2.649-4.277,4.306-4.189   c1.793,0.096,3.617,2.164,3.511,3.983C313.499,626.151,311.968,627.752,310.136,627.688"/>	<path fill="#182160" d="M582.569,623.725c-0.049-1.62,1.899-3.569,3.591-3.595c1.65-0.025,3.872,2.107,3.881,3.724   c0.011,2.013-1.908,3.821-4.168,3.932C583.761,627.888,582.653,626.525,582.569,623.725"/>	<path fill="#141E5C" d="M395.546,627.759c-2.084,0.023-3.885-1.733-3.934-3.838c-0.044-1.883,1.963-3.641,4.16-3.644   c1.512-0.002,3.687,2.059,3.695,3.501C399.477,625.633,397.403,627.738,395.546,627.759"/>	<path fill="#15205E" d="M296.186,627.714c-2.806-0.036-4.179-1.423-4.154-4.196c0.014-1.461,2.304-3.39,4.029-3.395   c1.638-0.004,3.443,1.993,3.405,3.767C299.421,626.014,297.943,627.735,296.186,627.714"/>	<path fill="#15205E" d="M725.661,627.195c-0.111,0.079-0.222,0.157-0.333,0.236c-1.084,0.004-2.169,0.009-3.253,0.014   c-1.353-0.494-1.828-1.847-2.263-2.91c-0.653-1.595,0.605-2.65,1.897-3.456c0.549-0.13,1.382,0.333,1.493-0.714   c0.479-0.287,0.943-0.224,1.401,0.049c0.263,0.927,1.124,0.78,1.784,0.996c0.691,0.434,0.992,1.043,0.84,1.859   c-0.236,0.384-0.123,0.793-0.088,1.197c0.074,0.856-0.195,1.604-0.73,2.265C726.056,626.717,725.762,626.799,725.661,627.195"/>	<path fill="#182160" d="M722.075,627.445c1.085-0.005,2.169-0.009,3.254-0.015C724.247,628.017,723.162,627.927,722.075,627.445"/>	<path fill="#182160" d="M723.203,620.365c-0.111,1.048-0.944,0.584-1.493,0.714C721.871,620.139,722.521,620.217,723.203,620.365"/>	<path fill="#182160" d="M726.388,621.41c-0.659-0.215-1.521-0.07-1.784-0.996C725.431,620.33,725.955,620.789,726.388,621.41"/>	<path fill="#182160" d="M727.141,624.466c-0.035-0.403-0.148-0.813,0.088-1.196C727.585,623.696,727.438,624.087,727.141,624.466"/>	<path fill="#182160" d="M725.661,627.195c0.101-0.396,0.395-0.479,0.749-0.464C726.35,627.19,725.991,627.171,725.661,627.195"/>	<path fill="#FDFDFE" d="M445.163,294.074c0.105-5.362,0.255-10.767,1.416-15.982c0.851-3.816,1.825-7.681,3.5-11.304   c0.905-1.957,1.25-4.158,2.323-6.066c2.426-4.314,5.301-8.11,9.753-10.707c3.272-1.909,6.626-3.501,10.088-4.999   c2.53-1.095,5.182-1.755,7.706-2.781c4.136-1.682,8.537-1.883,12.831-2.718c5.512-1.072,11.021-0.759,16.487-0.303   c3.148,0.263,6.472,0.495,9.444,1.861c2.074,0.952,3.982,2.111,5.713,3.767c2.689,2.573,4.884,5.533,7.301,8.309   c2.872,3.298,5.936,6.427,7.845,10.542c1.137,2.452,2.09,4.913,2.889,7.469c4.68,14.953,4.071,30.044,0.802,45.095   c-1.015,4.675-2.875,9.253-5.518,13.312c-2.002,3.072-4.377,5.912-6.983,8.554c-1.287,1.304-2.459,2.77-3.842,3.965   c-1.652,1.43-3.184,2.996-5.063,4.208c-1.397,0.9-2.77,1.864-4.175,2.777c-4.156,2.698-8.691,4.331-13.491,5.501   c-4.06,0.989-8.153,1.343-12.17,0.628c-3.788-0.675-7.736-1.071-11.202-3.075c-0.597-0.344-1.312-0.483-1.971-0.72   c-4.237-1.524-7.943-4.058-11.587-6.573c-3.103-2.142-6.217-4.472-8.568-7.46c-1.996-2.537-3.652-5.381-5.184-8.237   c-2.844-5.305-4.495-11.063-6.181-16.823c-0.877-2.998-1.444-6-1.791-9.067C445.191,300.202,445.094,297.14,445.163,294.074    M467.257,298.527c0,1.414,0.053,2.83-0.014,4.241c-0.071,1.502,0.941,2.614,1.289,3.934c1.178,4.474,3.263,8.624,4.528,13.061   c0.144,0.505,0.164,1.198,0.507,1.471c2.635,2.104,4.264,5.092,6.79,7.353c3.406,3.048,7.521,4.612,11.52,6.228   c4.237,1.712,8.94,1.034,13.457,0.503c1.101-0.129,2.32-0.258,3.229-0.81c3.643-2.213,7.888-3.425,10.978-6.551   c1.539-1.556,3.219-2.936,4.414-4.864c1.23-1.985,2.057-4.23,3.398-6.059c2.355-3.217,3.269-6.945,3.918-10.593   c0.993-5.588,0.966-11.244-0.417-16.932c-1.732-7.128-4.881-13.36-9.705-18.822c-0.801-0.906-1.969-1.303-2.757-2.139   c-2.972-3.147-6.764-4.898-10.776-6.04c-3.454-0.984-7.098-1.168-10.701-0.867c-2.609,0.218-5.159,0.599-7.673,1.627   c-2.199,0.9-4.094,2.022-5.955,3.474c-1.988,1.55-4.215,2.727-5.938,4.694c-0.802,0.916-1.039,2.045-1.838,2.909   c-2.943,3.188-5.056,6.86-5.957,11.135C468.643,289.801,466.5,293.912,467.257,298.527"/>	<path fill="#FFFFFF" d="M401.463,265.431c0,38.847-32.062,70.339-71.611,70.339c-39.55,0-71.611-31.492-71.611-70.339   c0-38.847,32.113-72.396,71.611-70.339C369.44,197.153,401.463,226.584,401.463,265.431"/>	<path fill="#0D1957" d="M376.474,262.904c0,22.073-18.153,39.966-40.545,39.966s-40.545-17.893-40.545-39.966   c0-22.073,18.153-39.966,40.545-39.966S376.474,240.831,376.474,262.904"/>	<path fill="#182160" d="M467.257,298.526c-0.757-4.615,1.385-8.726,2.296-13.047c0.901-4.274,3.014-7.947,5.958-11.135   c0.797-0.864,1.035-1.993,1.837-2.909c1.724-1.966,3.951-3.144,5.938-4.694c1.86-1.452,3.756-2.574,5.955-3.473   c2.514-1.028,5.063-1.41,7.674-1.628c3.602-0.301,7.246-0.116,10.7,0.867c4.013,1.143,7.805,2.893,10.775,6.041   c0.788,0.835,1.957,1.233,2.758,2.138c4.824,5.462,7.973,11.694,9.705,18.823c1.383,5.688,1.41,11.344,0.416,16.931   c-0.648,3.648-1.562,7.377-3.918,10.593c-1.341,1.83-2.168,4.075-3.397,6.06c-1.194,1.927-2.875,3.307-4.414,4.863   c-3.09,3.126-7.335,4.338-10.978,6.551c-0.908,0.552-2.129,0.681-3.229,0.811c-4.517,0.53-9.22,1.208-13.457-0.504   c-3.998-1.615-8.114-3.179-11.519-6.227c-2.527-2.262-4.156-5.249-6.791-7.353c-0.177-0.227-0.363-0.966-0.508-1.472   c-1.264-4.437-3.35-8.586-4.527-13.06c-0.349-1.32-1.36-2.433-1.289-3.935C467.309,301.356,467.257,299.94,467.257,298.526    M500.594,331.963c6.63-0.43,12.982-1.542,17.853-6.79c1.754-1.89,3.87-3.448,5.197-5.722c0.384-0.655,0.634-1.393,1.051-2.021   c2.586-3.893,3.995-8.198,4.507-12.811c0.123-1.106,0.053-2.232,0.117-3.346c0.515-8.991-0.778-17.525-6.606-24.796   c-1.492-1.862-3.426-3.363-5.049-5.129c-2.148-2.339-4.815-3.768-7.819-4.525c-4.098-1.033-8.229-1.806-12.515-1.151   c-3.088,0.472-6.269,0.841-8.977,2.347c-4.044,2.249-7.184,5.639-10.104,9.225c-2.317,2.845-3.822,6.201-4.687,9.573   c-2.231,8.714-3.007,17.561,0.884,26.122c1.628,3.581,3.386,7.089,6.25,9.951c1.079,1.077,2.479,1.804,3.36,2.975   c1.209,1.606,2.936,2.722,4.519,3.393C492.342,330.855,496.278,332.354,500.594,331.963"/>	<path fill="#F7F7F9" d="M500.594,331.963c-4.315,0.39-8.252-1.108-12.019-2.705c-1.583-0.671-3.31-1.787-4.519-3.393   c-0.881-1.171-2.281-1.898-3.36-2.975c-2.864-2.862-4.622-6.37-6.25-9.951c-3.891-8.561-3.116-17.409-0.883-26.122   c0.863-3.373,2.368-6.728,4.686-9.573c2.92-3.586,6.06-6.976,10.104-9.225c2.707-1.506,5.888-1.875,8.976-2.347   c4.286-0.655,8.417,0.118,12.515,1.151c3.004,0.757,5.67,2.186,7.819,4.525c1.623,1.766,3.557,3.267,5.049,5.129   c5.828,7.271,7.121,15.805,6.606,24.796c-0.064,1.114,0.006,2.24-0.117,3.346c-0.512,4.613-1.921,8.918-4.507,12.811   c-0.417,0.628-0.667,1.366-1.05,2.021c-1.328,2.274-3.444,3.832-5.198,5.722C513.576,330.421,507.224,331.534,500.594,331.963    M522.387,298.73c0-1.115,0.299-2.336-0.053-3.327c-1.347-3.811-1.864-7.914-4.121-11.415c-0.96-1.491-1.531-3.151-2.852-4.512   c-1.251-1.288-2.719-2.111-4.106-3.128c-2.798-2.05-6.086-2.777-9.33-3.564c-3.119-0.757-5.713,1.253-8.548,1.996   c-0.9,0.236-1.816,0.539-2.624,0.99c-2.874,1.604-4.894,3.958-6.629,6.795c-2.049,3.352-3.471,6.946-4.495,10.621   c-1.074,3.851-0.964,7.801,0.498,11.787c1.299,3.54,2.155,7.194,4.403,10.352c1.209,1.698,2.366,3.343,4.025,4.672   c2.007,1.607,4.344,2.374,6.646,3.34c2.449,1.028,4.874,1.26,7.481,1.058c1.68-0.13,3.066-0.874,4.563-1.408   c4.323-1.544,7.83-4.102,10.202-8.114c0.542-0.918,0.793-1.97,1.337-2.852C521.303,307.937,521.573,303.246,522.387,298.73"/>	<path fill="#0D1959" d="M359.016,259.168c0.123,3.286-0.442,6.576-1.67,9.587c-0.951,2.331-1.986,4.688-3.818,6.708   c-1.858,2.049-3.474,4.183-5.843,5.79c-2.595,1.76-5.383,2.89-8.296,3.814c-5.055,1.603-10.133,1.677-15.121-0.26   c-2.62-1.017-5.21-2.142-7.497-3.832c-5.833-4.31-9.109-10.137-10.651-17.17c-0.598-2.728-1.173-5.394-0.558-8.108   c0.52-2.3,1.289-4.563,2.161-6.758c1.5-3.775,3.36-7.456,6.4-10.17c1.758-1.569,3.853-2.922,6.155-3.855   c3.141-1.272,6.401-2.09,9.653-2.971c3.599-0.976,7.017,0.061,10.314,1.157c4.431,1.473,8.451,3.875,11.693,7.273   c1.436,1.506,2.767,3.163,3.666,5.191C357.531,249.915,359.176,254.278,359.016,259.168 M317.167,249.094   c-0.313,3.173,2.989,6.99,6.53,6.788c3.595-0.204,6.358-3.185,6.474-6.325c0.139-3.748-2.971-6.76-6.513-6.784   C320.189,242.75,316.844,245.902,317.167,249.094"/>	<path fill="#0D1959" d="M522.387,298.73c-0.813,4.515-1.084,9.207-3.601,13.291c-0.544,0.883-0.795,1.934-1.337,2.852   c-2.372,4.012-5.879,6.57-10.202,8.114c-1.497,0.535-2.884,1.279-4.563,1.409c-2.607,0.202-5.032-0.03-7.481-1.058   c-2.303-0.966-4.64-1.734-6.646-3.34c-1.659-1.33-2.816-2.974-4.025-4.673c-2.248-3.158-3.104-6.811-4.403-10.352   c-1.462-3.985-1.572-7.936-0.498-11.787c1.024-3.674,2.446-7.269,4.495-10.621c1.735-2.837,3.756-5.19,6.629-6.794   c0.808-0.452,1.724-0.754,2.624-0.99c2.835-0.744,5.429-2.754,8.548-1.997c3.244,0.788,6.532,1.514,9.33,3.564   c1.388,1.018,2.855,1.84,4.106,3.129c1.32,1.361,1.892,3.021,2.852,4.511c2.257,3.501,2.774,7.605,4.121,11.415   C522.686,296.395,522.387,297.615,522.387,298.73 M516.653,290.398c0.229-2.481-0.975-4.348-2.611-6.011   c-1.711-1.738-4.415-1.697-6.503-0.502c-3.446,1.972-3.489,4.997-2.954,8.219c0.616,3.701,4.022,5.746,6.351,5.15   C513.891,296.498,516.84,294.127,516.653,290.398"/>	<path fill="#F7F7F9" d="M317.167,249.094c-0.322-3.192,3.023-6.345,6.491-6.321c3.542,0.024,6.652,3.036,6.513,6.784   c-0.116,3.14-2.879,6.121-6.474,6.325C320.155,256.084,316.854,252.268,317.167,249.094"/>	<path fill="#F7F7F9" d="M516.654,290.397c0.186,3.729-2.763,6.101-5.718,6.857c-2.329,0.596-5.735-1.449-6.352-5.151   c-0.534-3.221-0.491-6.246,2.954-8.219c2.088-1.195,4.792-1.236,6.503,0.503C515.68,286.05,516.882,287.917,516.654,290.397"/>	<path fill="#FFFFFF" d="M371.25,262.904c0,19.228-15.813,34.816-35.32,34.816c-19.507,0-35.32-15.588-35.32-34.816   s15.813-34.816,35.32-34.816C355.437,228.088,371.25,243.676,371.25,262.904"/>	<path fill="#0D1957" d="M360.998,262.904c0,13.647-11.223,24.71-25.068,24.71c-13.845,0-25.068-11.063-25.068-24.71   s11.223-24.71,25.068-24.71C349.774,238.194,360.998,249.257,360.998,262.904"/>	<path fill="#0D1957" d="M550.438,294.795c0,33.906-24.397,61.392-54.491,61.392c-30.095,0-54.492-27.486-54.492-61.392   c0-33.906,24.437-63.187,54.492-61.392C526.07,235.203,550.438,260.89,550.438,294.795"/>	<path fill="#FFFFFF" d="M334.456,253.75c0,3.471-2.855,6.286-6.377,6.286c-3.521,0-6.376-2.815-6.376-6.286   c0-3.471,2.855-6.286,6.376-6.286C331.601,247.463,334.456,250.278,334.456,253.75"/>	<path fill="#FFFFFF" d="M545.841,296.037c0,31.948-23.658,57.847-52.844,57.847c-29.184,0-52.843-25.899-52.843-57.847   c0-31.948,26.944-55.28,52.625-56.521C522.008,238.104,545.841,264.089,545.841,296.037"/>	<path fill="#0D1957" d="M524.855,295.114c0,18.528-13.103,33.548-29.267,33.548s-29.269-15.021-29.269-33.548   s13.104-33.548,29.269-33.548S524.855,276.586,524.855,295.114"/>	<path fill="#FFFFFF" d="M521.084,295.114c0,16.141-11.415,29.225-25.496,29.225c-14.08,0-25.495-13.084-25.495-29.225   s11.415-29.225,25.495-29.225C509.669,265.889,521.084,278.973,521.084,295.114"/>	<path fill="#0D1957" d="M513.684,295.114c0,11.456-8.102,20.742-18.096,20.742c-9.993,0-18.095-9.286-18.095-20.742   s8.102-20.742,18.095-20.742C505.582,274.373,513.684,283.658,513.684,295.114"/>	<path fill="#FFFFFF" d="M507.463,290.141c0,2.914-2.062,5.276-4.604,5.276s-4.603-2.362-4.603-5.276   c0-2.914,2.061-5.276,4.603-5.276S507.463,287.227,507.463,290.141"/></g></svg>